<svg version="1.2" xmlns="http://www.w3.org/2000/svg" viewBox="0 0 700 185" width="378" height="100">
	<style>
		.s0 { fill: #d72027 } 
	</style>
	<g id="#d72027ff">
		<path class="s0" d="m385.16 12.27c101.32 0.05 202.64-0.11 303.95 0.08-3.35 14.06-6.41 28.19-9.72 42.26-60.8 0.08-121.61-0.03-182.42 0.05q-0.72 3.25-1.45 6.49c44.12 0.12 88.24-0.05 132.36 0.08-3.58 14.03-7.36 28.01-10.91 42.04-43.42 0.1-86.85-0.08-130.28 0.09-1.47 4.13-2.98 8.26-4.41 12.41 60.81 0.06 121.62 0.02 182.43 0.02-4.22 14.97-8.34 29.97-12.56 44.93-75.3-0.02-150.6 0.1-225.9-0.06 5.75-19.1 11.2-38.29 17.06-57.36q-155.25-0.02-310.5 0c3.75-14.02 7.31-28.09 11.11-42.1 102.95-0.04 205.9 0.02 308.85-0.03q-0.01-3.69 0.01-7.38c-26.71 0.03-53.43-0.01-80.15 0.03q6.33-20.76 12.53-41.55z"/>
	</g>
	<g id="#ffffffff">
	</g>
</svg>