<?xml version="1.0" encoding="UTF-8" ?>
<!DOCTYPE svg PUBLIC "-//W3C//DTD SVG 1.1//EN" "http://www.w3.org/Graphics/SVG/1.1/DTD/svg11.dtd">
<svg width="700pt" height="185pt" viewBox="0 0 700 185" version="1.1" xmlns="http://www.w3.org/2000/svg">
<g id="#d72027ff">
<path fill="#d72027" opacity="1.00" d=" M 385.16 12.27 C 486.48 12.32 587.80 12.16 689.11 12.35 C 685.76 26.41 682.70 40.54 679.39 54.61 C 618.59 54.69 557.78 54.58 496.97 54.66 C 496.49 56.83 496.01 58.99 495.52 61.15 C 539.64 61.27 583.76 61.10 627.88 61.23 C 624.30 75.26 620.52 89.24 616.97 103.27 C 573.55 103.37 530.12 103.19 486.69 103.36 C 485.22 107.49 483.71 111.62 482.28 115.77 C 543.09 115.83 603.90 115.79 664.71 115.79 C 660.49 130.76 656.37 145.76 652.15 160.72 C 576.85 160.70 501.55 160.82 426.25 160.66 C 432.00 141.56 437.45 122.37 443.31 103.30 C 339.81 103.29 236.31 103.29 132.81 103.30 C 136.56 89.28 140.12 75.21 143.92 61.20 C 246.87 61.16 349.82 61.22 452.77 61.17 C 452.76 58.71 452.77 56.25 452.78 53.79 C 426.07 53.82 399.35 53.78 372.63 53.82 C 376.85 39.98 381.03 26.13 385.16 12.27 Z" />
</g>
<g id="#ffffffff">
<path fill="#ffffff" opacity="1.00" d=" M 273.32 108.41 C 281.28 106.88 290.94 110.23 293.51 118.56 C 297.52 131.65 292.47 147.29 281.46 155.49 C 272.18 162.36 255.43 160.26 252.01 147.93 C 248.00 132.43 256.16 111.44 273.32 108.41 M 274.42 116.48 C 263.80 119.68 259.82 132.99 260.58 142.99 C 260.92 150.55 270.56 153.88 276.02 149.09 C 283.03 142.80 286.70 132.45 285.04 123.17 C 284.31 118.24 279.09 115.30 274.42 116.48 Z" />
<path fill="#ffffff" opacity="1.00" d=" M 25.30 108.91 C 35.08 108.88 44.85 108.92 54.63 108.89 C 54.03 111.57 53.36 114.23 52.67 116.89 C 45.92 117.01 39.16 116.72 32.42 117.06 C 31.47 120.90 30.59 124.76 29.53 128.57 C 36.02 128.52 42.50 128.52 48.99 128.56 C 48.28 131.31 47.58 134.06 46.85 136.80 C 40.39 136.95 33.92 136.70 27.46 136.95 C 26.42 141.42 25.31 145.86 24.15 150.29 C 31.36 150.24 38.58 150.30 45.80 150.25 C 45.04 152.91 44.37 155.58 43.70 158.27 C 33.44 158.28 23.19 158.28 12.93 158.27 C 17.10 141.83 21.02 125.32 25.30 108.91 Z" />
<path fill="#ffffff" opacity="1.00" d=" M 63.71 108.90 C 66.82 108.90 69.93 108.90 73.04 108.89 C 69.72 122.71 66.24 136.48 62.85 150.28 C 69.75 150.27 76.65 150.25 83.54 150.28 C 82.83 152.95 82.15 155.63 81.45 158.30 C 71.42 158.26 61.38 158.27 51.34 158.29 C 55.62 141.87 59.56 125.36 63.71 108.90 Z" />
<path fill="#ffffff" opacity="1.00" d=" M 100.30 108.91 C 110.08 108.88 119.85 108.92 129.63 108.89 C 129.03 111.57 128.36 114.23 127.67 116.89 C 120.93 116.93 114.18 116.90 107.44 116.91 C 106.45 120.79 105.50 124.68 104.52 128.56 C 111.01 128.53 117.50 128.52 123.99 128.56 C 123.28 131.31 122.58 134.06 121.85 136.80 C 115.41 136.91 108.97 136.79 102.54 136.88 C 101.40 141.35 100.34 145.84 99.16 150.29 C 106.37 150.25 113.59 150.28 120.81 150.27 C 120.09 152.93 119.40 155.60 118.71 158.27 C 108.45 158.28 98.19 158.28 87.93 158.27 C 92.15 141.84 95.99 125.31 100.30 108.91 Z" />
<path fill="#ffffff" opacity="1.00" d=" M 138.75 108.87 C 141.78 108.90 144.81 108.90 147.85 108.90 C 146.03 116.58 144.07 124.23 142.10 131.87 C 149.79 124.61 156.54 116.40 164.27 109.21 C 167.92 108.50 171.72 109.08 175.43 108.85 C 167.83 116.88 160.03 124.71 152.35 132.66 C 156.56 141.15 160.46 149.80 164.62 158.32 C 160.84 158.26 157.05 158.26 153.26 158.30 C 149.50 149.66 145.86 140.98 142.06 132.36 C 139.69 140.97 137.84 149.72 135.44 158.32 C 132.41 158.27 129.37 158.27 126.34 158.29 C 130.61 141.85 134.35 125.27 138.75 108.87 Z" />
<path fill="#ffffff" opacity="1.00" d=" M 178.91 108.94 C 189.98 108.86 201.05 108.92 212.12 108.90 C 211.32 111.71 210.39 114.48 209.39 117.21 C 205.62 117.17 201.86 117.18 198.10 117.19 C 194.67 130.88 191.37 144.60 187.90 158.27 C 184.81 158.28 181.72 158.28 178.63 158.29 C 182.11 144.61 185.40 130.88 188.89 117.20 C 184.69 117.17 180.50 117.18 176.31 117.20 C 177.21 114.45 178.09 111.71 178.91 108.94 Z" />
<path fill="#ffffff" opacity="1.00" d=" M 218.94 109.19 C 227.72 109.82 237.90 106.93 245.56 112.44 C 253.18 120.54 247.71 135.69 237.02 138.08 C 239.14 144.82 240.86 151.68 243.10 158.38 C 239.57 158.45 236.03 158.45 232.50 158.43 C 231.01 152.14 229.50 145.86 228.03 139.56 C 225.55 139.55 223.09 139.54 220.62 139.52 C 219.06 145.82 217.47 152.12 215.92 158.43 C 212.86 158.44 209.79 158.44 206.73 158.43 C 210.82 142.02 214.89 125.61 218.94 109.19 M 226.16 117.18 C 224.96 121.94 223.81 126.72 222.55 131.47 C 227.17 131.30 232.32 132.15 236.41 129.46 C 239.87 127.01 241.20 120.38 236.93 118.10 C 233.54 116.70 229.74 117.32 226.16 117.18 Z" />
<path fill="#ffffff" opacity="1.00" d=" M 321.29 108.95 C 332.36 108.85 343.43 108.92 354.51 108.91 C 353.64 111.69 352.72 114.44 351.74 117.18 C 347.97 117.19 344.20 117.18 340.43 117.18 C 337.01 130.88 333.72 144.61 330.20 158.28 C 327.12 158.27 324.04 158.28 320.97 158.28 C 324.46 144.61 327.72 130.88 331.19 117.21 C 327.00 117.17 322.80 117.18 318.60 117.20 C 319.54 114.46 320.44 111.71 321.29 108.95 Z" />
<path fill="#ffffff" opacity="1.00" d=" M 361.22 108.91 C 371.02 108.88 380.81 108.93 390.61 108.89 C 389.94 111.55 389.28 114.22 388.61 116.89 C 381.86 116.93 375.12 116.90 368.38 116.90 C 367.38 120.77 366.47 124.66 365.48 128.53 C 371.98 128.56 378.48 128.50 384.98 128.56 C 384.22 131.30 383.52 134.05 382.83 136.81 C 376.37 136.94 369.92 136.72 363.47 136.94 C 362.37 141.39 361.27 145.85 360.12 150.28 C 367.32 150.28 374.51 150.24 381.71 150.30 C 381.00 152.95 380.32 155.60 379.68 158.27 C 369.41 158.29 359.14 158.26 348.87 158.29 C 353.13 141.86 356.99 125.34 361.22 108.91 Z" />
<path fill="#ffffff" opacity="1.00" d=" M 399.71 108.89 C 402.80 108.90 405.89 108.90 408.98 108.88 C 405.66 122.72 402.21 136.52 398.65 150.30 C 405.61 150.25 412.58 150.26 419.55 150.29 C 418.83 152.95 418.15 155.63 417.45 158.30 C 407.42 158.26 397.38 158.27 387.34 158.29 C 391.61 141.86 395.48 125.33 399.71 108.89 Z" />
<path fill="#ffffff" opacity="1.00" d=" M 296.38 136.39 C 302.63 136.37 308.89 136.34 315.14 136.42 C 314.54 138.56 313.94 140.70 313.36 142.85 C 307.17 142.88 300.98 142.86 294.79 142.86 C 295.34 140.71 295.86 138.55 296.38 136.39 Z" />
</g>
</svg>
