<?xml version="1.0" encoding="utf-8"?>
<!DOCTYPE svg PUBLIC "-//W3C//DTD SVG 1.1//EN" "http://www.w3.org/Graphics/SVG/1.1/DTD/svg11.dtd">
<svg version="1.1" id="Ebene_1" xmlns="http://www.w3.org/2000/svg" xmlns:xlink="http://www.w3.org/1999/xlink" x="0px" y="0px"
	 width="233.356px" height="74px" viewBox="0 0 233.356 74" enable-background="new 0 0 233.356 74" xml:space="preserve">
<g>
	<path d="M27.899,72.423c0.075,0.043,0.179,0.097,0.312,0.16c0.133,0.064,0.395,0.149,0.784,0.257
		c0.39,0.106,0.766,0.159,1.128,0.159c0.859,0,1.555-0.213,2.089-0.64s0.8-1.075,0.8-1.945v-0.76l0.032-0.584h-0.032
		c-0.507,0.96-1.376,1.44-2.609,1.44c-1.099,0-1.986-0.395-2.661-1.185s-1.012-1.806-1.012-3.049c0-1.249,0.323-2.254,0.968-3.018
		c0.646-0.763,1.515-1.145,2.609-1.145c0.406,0,0.776,0.047,1.112,0.141c0.336,0.093,0.599,0.208,0.789,0.344
		s0.351,0.272,0.484,0.408s0.222,0.252,0.264,0.349l0.072,0.136h0.032c-0.011-0.064-0.016-0.157-0.016-0.28v-0.896h1.08v8.043
		c0,0.507-0.073,0.967-0.22,1.381c-0.147,0.413-0.344,0.759-0.592,1.036s-0.542,0.51-0.88,0.696s-0.696,0.321-1.072,0.404
		C30.984,73.958,30.588,74,30.172,74c-0.939,0-1.838-0.219-2.697-0.656L27.899,72.423z M30.588,69.51
		c0.341,0,0.652-0.056,0.932-0.168c0.28-0.111,0.536-0.289,0.769-0.532c0.232-0.242,0.413-0.578,0.544-1.008
		s0.196-0.938,0.196-1.524c0-2.097-0.87-3.146-2.609-3.146c-0.8,0-1.423,0.275-1.869,0.824c-0.446,0.55-0.668,1.318-0.668,2.305
		c0,0.987,0.246,1.775,0.736,2.365S29.766,69.51,30.588,69.51z"/>
	<path d="M36.263,66.445c0-0.662,0.107-1.268,0.32-1.816c0.213-0.55,0.505-1.006,0.876-1.369c0.371-0.362,0.801-0.644,1.292-0.844
		c0.491-0.2,1.016-0.301,1.577-0.301c0.73,0,1.361,0.177,1.893,0.528c0.531,0.353,0.921,0.812,1.172,1.377
		c0.25,0.565,0.376,1.197,0.376,1.896l-0.032,0.576h-6.322c0.016,0.683,0.172,1.275,0.468,1.776
		c0.296,0.502,0.681,0.875,1.153,1.121c0.472,0.245,0.996,0.368,1.572,0.368c0.283,0,0.562-0.035,0.836-0.104s0.508-0.152,0.7-0.248
		s0.364-0.193,0.516-0.292c0.152-0.099,0.266-0.183,0.34-0.252l0.112-0.104l0.512,0.849c-0.032,0.032-0.079,0.073-0.14,0.124
		c-0.061,0.051-0.195,0.143-0.4,0.276c-0.206,0.133-0.419,0.25-0.64,0.352c-0.222,0.102-0.502,0.193-0.84,0.276
		c-0.339,0.082-0.682,0.124-1.028,0.124c-1.238,0-2.267-0.404-3.085-1.213C36.672,68.738,36.263,67.704,36.263,66.445z
		 M37.463,65.573h5.178c-0.032-0.822-0.267-1.447-0.704-1.877s-0.984-0.645-1.641-0.645c-0.715,0-1.334,0.22-1.857,0.66
		C37.917,64.152,37.591,64.772,37.463,65.573z"/>
	<path d="M45.931,70.559V59.034h1.112v4.002l-0.032,0.672h0.032c0.021-0.043,0.05-0.1,0.088-0.172
		c0.037-0.072,0.133-0.2,0.288-0.384c0.155-0.185,0.33-0.346,0.524-0.484c0.194-0.139,0.461-0.266,0.8-0.38
		c0.338-0.115,0.705-0.173,1.1-0.173c1.094,0,1.966,0.399,2.617,1.196c0.651,0.798,0.976,1.843,0.976,3.134s-0.347,2.333-1.04,3.125
		c-0.694,0.792-1.587,1.188-2.681,1.188c-0.368,0-0.712-0.055-1.032-0.164c-0.32-0.109-0.578-0.243-0.772-0.4
		s-0.364-0.316-0.508-0.476c-0.144-0.16-0.245-0.297-0.304-0.408l-0.088-0.16h-0.032c0.021,0.187,0.032,0.41,0.032,0.672v0.736
		H45.931z M47.011,66.461c0,0.422,0.055,0.827,0.164,1.217s0.27,0.741,0.48,1.057c0.21,0.314,0.486,0.566,0.828,0.756
		c0.341,0.189,0.726,0.284,1.152,0.284c0.752,0,1.383-0.3,1.893-0.9c0.51-0.601,0.764-1.41,0.764-2.429
		c0-1.003-0.24-1.806-0.72-2.409c-0.48-0.603-1.109-0.904-1.889-0.904c-0.357,0-0.692,0.065-1.004,0.196
		c-0.312,0.131-0.595,0.325-0.848,0.584s-0.454,0.607-0.6,1.045C47.084,65.395,47.011,65.896,47.011,66.461z"/>
	<path d="M54.943,68.31c0-0.384,0.07-0.729,0.212-1.032c0.141-0.304,0.317-0.554,0.528-0.748c0.21-0.195,0.479-0.364,0.804-0.509
		c0.325-0.144,0.628-0.25,0.908-0.319c0.28-0.069,0.607-0.123,0.98-0.16s0.667-0.061,0.88-0.068s0.459-0.012,0.736-0.012h0.456
		v-0.216c0-1.42-0.683-2.129-2.049-2.129c-0.405,0-0.802,0.066-1.188,0.2c-0.387,0.133-0.673,0.264-0.86,0.392l-0.28,0.2
		l-0.521-0.856c0.032-0.026,0.075-0.062,0.128-0.104c0.053-0.043,0.176-0.118,0.368-0.225c0.192-0.106,0.393-0.201,0.604-0.284
		c0.211-0.082,0.481-0.157,0.813-0.224c0.331-0.066,0.669-0.101,1.016-0.101c0.998,0,1.761,0.271,2.289,0.813
		c0.528,0.542,0.792,1.327,0.792,2.357v5.273h-1.064v-0.904l0.032-0.688h-0.032c-0.011,0.027-0.025,0.062-0.044,0.104
		s-0.065,0.125-0.14,0.248s-0.157,0.241-0.248,0.355c-0.091,0.115-0.215,0.24-0.372,0.377c-0.157,0.136-0.324,0.255-0.5,0.355
		c-0.176,0.102-0.391,0.186-0.645,0.252c-0.253,0.067-0.521,0.101-0.804,0.101c-0.277,0-0.551-0.032-0.82-0.096
		c-0.27-0.064-0.523-0.163-0.76-0.297c-0.237-0.133-0.447-0.294-0.628-0.483c-0.182-0.189-0.326-0.419-0.432-0.688
		C54.996,68.925,54.943,68.63,54.943,68.31z M56.087,68.246c0,0.416,0.161,0.78,0.484,1.092c0.323,0.313,0.775,0.469,1.356,0.469
		c0.501,0,0.95-0.159,1.345-0.477c0.395-0.317,0.689-0.705,0.884-1.164s0.292-0.934,0.292-1.425v-0.36h-0.472
		c-0.246,0-0.456,0.003-0.632,0.008c-0.176,0.006-0.41,0.021-0.7,0.045c-0.291,0.023-0.542,0.06-0.752,0.107
		c-0.21,0.048-0.436,0.117-0.676,0.208c-0.24,0.091-0.436,0.2-0.588,0.328c-0.152,0.128-0.28,0.292-0.384,0.492
		S56.087,67.995,56.087,68.246z M56.775,60.443v-1.409h1v1.409H56.775z M59.256,60.443v-1.409h1.016v1.409H59.256z"/>
	<path d="M64.051,67.558v-5.242h1.112v4.946c0,0.293,0.011,0.547,0.032,0.76c0.021,0.214,0.068,0.433,0.14,0.656
		c0.072,0.225,0.17,0.407,0.296,0.549c0.125,0.141,0.299,0.257,0.52,0.348c0.222,0.091,0.487,0.136,0.796,0.136
		c0.608,0,1.148-0.164,1.621-0.492s0.828-0.752,1.068-1.272c0.24-0.52,0.36-1.081,0.36-1.685v-3.945h1.112v8.243h-1.081v-1.232
		l0.032-0.656h-0.032c-0.091,0.219-0.223,0.441-0.396,0.668c-0.173,0.228-0.391,0.451-0.652,0.673
		c-0.261,0.221-0.583,0.401-0.964,0.54s-0.786,0.208-1.212,0.208c-0.955,0-1.652-0.262-2.093-0.784
		C64.271,69.451,64.051,68.646,64.051,67.558z"/>
	<path d="M74.264,69.563c-0.651-0.798-0.977-1.842-0.977-3.134c0-1.291,0.345-2.332,1.036-3.125
		c0.691-0.792,1.581-1.188,2.669-1.188c0.373,0,0.721,0.054,1.044,0.16c0.323,0.107,0.581,0.236,0.772,0.389
		c0.192,0.151,0.357,0.305,0.496,0.46c0.139,0.154,0.235,0.285,0.288,0.392l0.088,0.16h0.032c-0.021-0.187-0.032-0.395-0.032-0.624
		v-4.018h1.112v11.524h-1.081v-0.872l0.032-0.584h-0.032c-0.016,0.042-0.044,0.101-0.084,0.176c-0.04,0.074-0.137,0.208-0.292,0.4
		c-0.155,0.191-0.33,0.359-0.524,0.504c-0.195,0.144-0.464,0.276-0.808,0.396c-0.344,0.12-0.719,0.181-1.125,0.181
		C75.787,70.759,74.915,70.36,74.264,69.563z M75.2,64.017c-0.507,0.6-0.76,1.404-0.76,2.412c0,1.009,0.239,1.815,0.716,2.421
		c0.478,0.606,1.105,0.909,1.885,0.909c0.357,0,0.692-0.065,1.004-0.196s0.595-0.325,0.848-0.585c0.253-0.258,0.454-0.606,0.6-1.044
		c0.147-0.438,0.22-0.938,0.22-1.505c0-0.427-0.055-0.835-0.164-1.224c-0.109-0.39-0.27-0.742-0.48-1.057
		c-0.211-0.314-0.487-0.565-0.829-0.752c-0.341-0.188-0.726-0.28-1.152-0.28C76.336,63.116,75.707,63.416,75.2,64.017z"/>
	<path d="M82.939,66.445c0-0.662,0.107-1.268,0.32-1.816c0.213-0.55,0.505-1.006,0.876-1.369c0.371-0.362,0.801-0.644,1.292-0.844
		c0.491-0.2,1.016-0.301,1.576-0.301c0.731,0,1.362,0.177,1.893,0.528c0.531,0.353,0.921,0.812,1.172,1.377
		c0.25,0.565,0.376,1.197,0.376,1.896l-0.032,0.576h-6.322c0.016,0.683,0.172,1.275,0.468,1.776
		c0.296,0.502,0.681,0.875,1.153,1.121c0.472,0.245,0.996,0.368,1.572,0.368c0.283,0,0.562-0.035,0.836-0.104s0.508-0.152,0.7-0.248
		s0.364-0.193,0.516-0.292c0.152-0.099,0.266-0.183,0.34-0.252l0.112-0.104l0.512,0.849c-0.032,0.032-0.079,0.073-0.14,0.124
		c-0.061,0.051-0.195,0.143-0.4,0.276c-0.206,0.133-0.419,0.25-0.64,0.352c-0.222,0.102-0.502,0.193-0.84,0.276
		c-0.339,0.082-0.682,0.124-1.028,0.124c-1.238,0-2.267-0.404-3.085-1.213C83.349,68.738,82.939,67.704,82.939,66.445z
		 M84.14,65.573h5.178c-0.032-0.822-0.267-1.447-0.704-1.877s-0.984-0.645-1.641-0.645c-0.715,0-1.334,0.22-1.857,0.66
		C84.593,64.152,84.268,64.772,84.14,65.573z"/>
	<path d="M91.936,68.31c0-0.384,0.07-0.729,0.212-1.032c0.141-0.304,0.317-0.554,0.528-0.748c0.21-0.195,0.479-0.364,0.804-0.509
		c0.325-0.144,0.628-0.25,0.908-0.319c0.28-0.069,0.607-0.123,0.98-0.16s0.667-0.061,0.88-0.068s0.459-0.012,0.736-0.012h0.456
		v-0.216c0-1.42-0.683-2.129-2.049-2.129c-0.405,0-0.802,0.066-1.188,0.2c-0.387,0.133-0.673,0.264-0.86,0.392l-0.28,0.2
		l-0.521-0.856c0.032-0.026,0.075-0.062,0.128-0.104c0.053-0.043,0.176-0.118,0.368-0.225c0.192-0.106,0.393-0.201,0.604-0.284
		c0.211-0.082,0.481-0.157,0.813-0.224c0.331-0.066,0.669-0.101,1.016-0.101c0.998,0,1.761,0.271,2.289,0.813
		c0.528,0.542,0.792,1.327,0.792,2.357v5.273h-1.064v-0.904l0.032-0.688h-0.032c-0.011,0.027-0.025,0.062-0.044,0.104
		s-0.065,0.125-0.14,0.248s-0.157,0.241-0.248,0.355c-0.091,0.115-0.215,0.24-0.372,0.377c-0.157,0.136-0.324,0.255-0.5,0.355
		c-0.176,0.102-0.391,0.186-0.645,0.252c-0.253,0.067-0.521,0.101-0.804,0.101c-0.277,0-0.551-0.032-0.82-0.096
		c-0.27-0.064-0.523-0.163-0.76-0.297c-0.237-0.133-0.447-0.294-0.628-0.483c-0.182-0.189-0.326-0.419-0.432-0.688
		C91.989,68.925,91.936,68.63,91.936,68.31z M93.08,68.246c0,0.416,0.161,0.78,0.484,1.092c0.323,0.313,0.775,0.469,1.356,0.469
		c0.501,0,0.95-0.159,1.345-0.477c0.395-0.317,0.689-0.705,0.884-1.164s0.292-0.934,0.292-1.425v-0.36h-0.472
		c-0.246,0-0.456,0.003-0.632,0.008c-0.176,0.006-0.41,0.021-0.7,0.045c-0.291,0.023-0.542,0.06-0.752,0.107
		c-0.21,0.048-0.436,0.117-0.676,0.208c-0.24,0.091-0.436,0.2-0.588,0.328c-0.152,0.128-0.28,0.292-0.384,0.492
		S93.08,67.995,93.08,68.246z"/>
	<path d="M101.043,67.558v-5.242h1.112v4.946c0,0.293,0.011,0.547,0.032,0.76c0.021,0.214,0.068,0.433,0.14,0.656
		c0.072,0.225,0.17,0.407,0.296,0.549c0.125,0.141,0.299,0.257,0.52,0.348c0.222,0.091,0.487,0.136,0.796,0.136
		c0.608,0,1.148-0.164,1.621-0.492s0.828-0.752,1.068-1.272c0.24-0.52,0.36-1.081,0.36-1.685v-3.945h1.112v8.243h-1.081v-1.232
		l0.032-0.656h-0.032c-0.091,0.219-0.223,0.441-0.396,0.668c-0.173,0.228-0.391,0.451-0.652,0.673
		c-0.261,0.221-0.583,0.401-0.964,0.54s-0.786,0.208-1.212,0.208c-0.955,0-1.652-0.262-2.093-0.784
		C101.264,69.451,101.043,68.646,101.043,67.558z"/>
	<path d="M111.136,67.558v-4.21h-1.081v-0.936h1.096v-2.377h1.097v2.377h2.065v0.936h-2.065v4.098c0,0.31,0.031,0.587,0.092,0.832
		c0.062,0.246,0.146,0.444,0.252,0.597c0.106,0.152,0.221,0.28,0.344,0.384c0.123,0.104,0.26,0.182,0.413,0.232
		c0.152,0.051,0.285,0.085,0.4,0.104c0.114,0.019,0.233,0.027,0.356,0.027l0.376-0.032v1.001c-0.123,0.021-0.283,0.032-0.48,0.032
		c-0.229,0-0.452-0.018-0.668-0.053c-0.216-0.034-0.464-0.114-0.745-0.24c-0.28-0.125-0.521-0.292-0.724-0.5s-0.375-0.508-0.516-0.9
		C111.206,68.538,111.136,68.08,111.136,67.558z"/>
	<path d="M115.738,66.397c0-0.801,0.194-1.529,0.584-2.186s0.918-1.169,1.585-1.54s1.397-0.557,2.192-0.557s1.526,0.186,2.193,0.557
		c0.666,0.371,1.194,0.884,1.584,1.54s0.584,1.385,0.584,2.186c0,0.607-0.114,1.184-0.344,1.729
		c-0.229,0.544-0.54,1.007-0.933,1.389c-0.392,0.381-0.856,0.684-1.393,0.908c-0.536,0.224-1.1,0.336-1.692,0.336
		c-0.592,0-1.156-0.112-1.692-0.336c-0.536-0.225-1-0.527-1.393-0.908c-0.393-0.382-0.703-0.845-0.933-1.389
		C115.852,67.581,115.738,67.005,115.738,66.397z M116.89,66.397c0,0.955,0.313,1.754,0.937,2.396s1.382,0.965,2.272,0.965
		c0.892,0,1.648-0.322,2.273-0.965c0.624-0.643,0.936-1.441,0.936-2.396c0-0.923-0.312-1.698-0.936-2.325
		c-0.625-0.627-1.382-0.94-2.273-0.94c-0.891,0-1.648,0.313-2.272,0.94S116.89,65.475,116.89,66.397z"/>
	<path d="M126.567,70.559v-8.243h1.096v1.225l-0.031,0.656h0.031c0.198-0.565,0.587-1.054,1.169-1.465
		c0.581-0.41,1.187-0.616,1.816-0.616c0.747,0,1.327,0.173,1.741,0.517c0.413,0.344,0.684,0.86,0.812,1.549h0.032
		c0.229-0.576,0.624-1.064,1.185-1.465s1.177-0.601,1.849-0.601c0.966,0,1.663,0.27,2.093,0.809s0.645,1.337,0.645,2.393v5.242
		h-1.112v-4.97c0-0.368-0.024-0.687-0.072-0.956s-0.132-0.524-0.252-0.765s-0.303-0.423-0.549-0.548
		c-0.245-0.126-0.549-0.188-0.912-0.188c-0.608,0-1.153,0.229-1.637,0.685c-0.482,0.456-0.807,1.004-0.972,1.645
		c-0.097,0.31-0.145,0.709-0.145,1.2v3.897h-1.112v-4.97c0-0.283-0.011-0.529-0.032-0.74s-0.066-0.431-0.136-0.66
		s-0.166-0.416-0.288-0.561c-0.123-0.144-0.294-0.263-0.513-0.356c-0.219-0.093-0.478-0.14-0.776-0.14
		c-0.64,0-1.204,0.236-1.692,0.708c-0.488,0.473-0.823,1.045-1.004,1.717c-0.08,0.347-0.12,0.715-0.12,1.104v3.897H126.567z"/>
	<path d="M140.932,68.31c0-0.384,0.071-0.729,0.213-1.032c0.141-0.304,0.317-0.554,0.527-0.748c0.211-0.195,0.479-0.364,0.805-0.509
		c0.325-0.144,0.628-0.25,0.908-0.319s0.607-0.123,0.98-0.16s0.667-0.061,0.88-0.068c0.214-0.008,0.459-0.012,0.736-0.012h0.457
		v-0.216c0-1.42-0.684-2.129-2.049-2.129c-0.406,0-0.802,0.066-1.188,0.2c-0.388,0.133-0.674,0.264-0.86,0.392l-0.28,0.2
		l-0.521-0.856c0.032-0.026,0.075-0.062,0.128-0.104c0.054-0.043,0.177-0.118,0.368-0.225c0.192-0.106,0.394-0.201,0.604-0.284
		c0.211-0.082,0.481-0.157,0.813-0.224c0.33-0.066,0.669-0.101,1.017-0.101c0.997,0,1.76,0.271,2.288,0.813
		c0.528,0.542,0.793,1.327,0.793,2.357v5.273h-1.064v-0.904l0.031-0.688h-0.031c-0.011,0.027-0.025,0.062-0.044,0.104
		c-0.02,0.043-0.065,0.125-0.141,0.248c-0.074,0.123-0.157,0.241-0.248,0.355c-0.091,0.115-0.215,0.24-0.372,0.377
		c-0.157,0.136-0.324,0.255-0.5,0.355c-0.176,0.102-0.391,0.186-0.645,0.252c-0.253,0.067-0.521,0.101-0.804,0.101
		c-0.278,0-0.552-0.032-0.82-0.096c-0.27-0.064-0.523-0.163-0.761-0.297c-0.237-0.133-0.447-0.294-0.628-0.483
		c-0.182-0.189-0.326-0.419-0.433-0.688S140.932,68.63,140.932,68.31z M142.077,68.246c0,0.416,0.161,0.78,0.484,1.092
		c0.323,0.313,0.775,0.469,1.356,0.469c0.502,0,0.949-0.159,1.345-0.477c0.395-0.317,0.689-0.705,0.884-1.164
		c0.195-0.459,0.293-0.934,0.293-1.425v-0.36h-0.473c-0.245,0-0.456,0.003-0.632,0.008c-0.177,0.006-0.41,0.021-0.7,0.045
		c-0.291,0.023-0.542,0.06-0.753,0.107s-0.436,0.117-0.676,0.208s-0.437,0.2-0.589,0.328c-0.151,0.128-0.279,0.292-0.384,0.492
		C142.129,67.77,142.077,67.995,142.077,68.246z"/>
	<path d="M150.417,67.558v-4.21h-1.08v-0.936h1.097v-2.377h1.096v2.377h2.065v0.936h-2.065v4.098c0,0.31,0.031,0.587,0.093,0.832
		c0.061,0.246,0.145,0.444,0.252,0.597c0.106,0.152,0.221,0.28,0.344,0.384c0.123,0.104,0.261,0.182,0.412,0.232
		c0.152,0.051,0.285,0.085,0.4,0.104c0.114,0.019,0.233,0.027,0.356,0.027l0.376-0.032v1.001c-0.123,0.021-0.283,0.032-0.48,0.032
		c-0.229,0-0.452-0.018-0.668-0.053c-0.216-0.034-0.464-0.114-0.744-0.24c-0.28-0.125-0.521-0.292-0.725-0.5s-0.375-0.508-0.516-0.9
		C150.488,68.538,150.417,68.08,150.417,67.558z"/>
	<path d="M155.595,60.427v-1.393h1.16v1.393H155.595z M155.627,70.559v-8.243h1.112v8.243H155.627z"/>
	<path d="M158.854,66.397c0-0.801,0.194-1.529,0.584-2.186s0.918-1.169,1.585-1.54s1.397-0.557,2.192-0.557s1.526,0.186,2.193,0.557
		c0.666,0.371,1.194,0.884,1.584,1.54s0.584,1.385,0.584,2.186c0,0.607-0.114,1.184-0.344,1.729
		c-0.229,0.544-0.54,1.007-0.933,1.389c-0.392,0.381-0.856,0.684-1.393,0.908c-0.536,0.224-1.1,0.336-1.692,0.336
		c-0.592,0-1.156-0.112-1.692-0.336c-0.536-0.225-1-0.527-1.393-0.908c-0.393-0.382-0.703-0.845-0.933-1.389
		C158.968,67.581,158.854,67.005,158.854,66.397z M160.006,66.397c0,0.955,0.313,1.754,0.937,2.396s1.382,0.965,2.272,0.965
		c0.892,0,1.648-0.322,2.273-0.965c0.624-0.643,0.936-1.441,0.936-2.396c0-0.923-0.312-1.698-0.936-2.325
		c-0.625-0.627-1.382-0.94-2.273-0.94c-0.891,0-1.648,0.313-2.272,0.94S160.006,65.475,160.006,66.397z"/>
	<path d="M169.682,70.559v-8.243h1.096v1.225l-0.031,0.656h0.031c0.064-0.165,0.153-0.335,0.269-0.508
		c0.114-0.174,0.269-0.356,0.46-0.549c0.192-0.191,0.407-0.362,0.645-0.512s0.524-0.272,0.86-0.368
		c0.336-0.097,0.69-0.145,1.064-0.145c0.981,0,1.686,0.269,2.112,0.805s0.641,1.335,0.641,2.396v5.242h-1.112v-4.945
		c0-0.294-0.011-0.547-0.032-0.761c-0.021-0.213-0.068-0.433-0.14-0.656c-0.072-0.224-0.173-0.407-0.301-0.548
		c-0.128-0.142-0.303-0.258-0.524-0.349c-0.221-0.091-0.486-0.136-0.796-0.136c-0.699,0-1.326,0.218-1.881,0.652
		s-0.926,0.993-1.112,1.677c-0.091,0.325-0.136,0.696-0.136,1.112v3.953H169.682z"/>
</g>
<path fill="#777776" d="M0,38.669c0-2.238,0.458-4.148,1.376-5.727c0.917-1.578,2.11-2.898,3.582-3.964
	c1.47-1.066,3.129-1.903,4.977-2.51c1.848-0.607,3.704-1.072,5.565-1.396c1.861-0.324,3.628-0.525,5.301-0.607
	c1.672-0.08,3.088-0.122,4.249-0.122h1.417v-0.606c0-1.375-0.202-2.542-0.607-3.5c-0.405-0.958-0.971-1.728-1.699-2.307
	c-0.729-0.58-1.592-0.999-2.59-1.255c-0.998-0.255-2.078-0.384-3.237-0.384c-1.538,0-3.001,0.208-4.391,0.627
	c-1.39,0.418-2.624,0.883-3.703,1.395c-1.269,0.594-2.442,1.27-3.521,2.023l-3.966-7.526c1.349-0.971,2.859-1.834,4.532-2.589
	c1.457-0.648,3.19-1.248,5.2-1.801c2.009-0.552,4.283-0.83,6.819-0.83c2.778,0,5.261,0.372,7.446,1.113
	c2.186,0.743,4.026,1.836,5.524,3.278c1.498,1.444,2.644,3.211,3.44,5.301c0.795,2.091,1.193,4.472,1.193,7.143V50.85h-9.712V47.37
	c0-0.405,0.006-0.788,0.021-1.153c0.013-0.364,0.033-0.681,0.061-0.951c0.026-0.296,0.054-0.593,0.081-0.89h-0.162
	c-0.351,0.728-0.735,1.376-1.153,1.942c-0.418,0.567-0.965,1.168-1.639,1.8c-0.675,0.636-1.483,1.235-2.427,1.802
	c-0.945,0.566-2.051,1.031-3.319,1.396c-1.268,0.363-2.698,0.545-4.29,0.545c-1.889,0-3.703-0.289-5.443-0.869
	s-3.271-1.43-4.593-2.549c-1.322-1.12-2.374-2.502-3.156-4.147C0.391,42.649,0,40.774,0,38.669z M10.602,38.184
	c0,0.701,0.135,1.382,0.405,2.043c0.269,0.661,0.668,1.242,1.194,1.739c0.525,0.5,1.187,0.905,1.982,1.215
	c0.795,0.311,1.733,0.466,2.813,0.466c1.376,0,2.651-0.336,3.824-1.012c1.173-0.674,2.185-1.551,3.035-2.63
	c0.85-1.079,1.51-2.274,1.983-3.582c0.472-1.31,0.708-2.611,0.708-3.907v-0.97h-1.821c-0.917,0-1.896,0.027-2.934,0.081
	c-1.039,0.054-2.084,0.161-3.136,0.323c-1.052,0.163-2.064,0.392-3.035,0.689c-0.971,0.297-1.828,0.695-2.57,1.194
	s-1.335,1.099-1.78,1.8C10.825,36.337,10.602,37.187,10.602,38.184z"/>
<path fill="#777776" d="M43.729,8.604h10.117v4.854c0,0.405-0.007,0.783-0.021,1.133c-0.014,0.353-0.034,0.663-0.061,0.931
	c-0.027,0.298-0.054,0.58-0.081,0.851h0.162c0.458-0.89,1.099-1.849,1.922-2.873c0.822-1.026,1.847-1.976,3.075-2.853
	c1.228-0.878,2.671-1.606,4.33-2.186c1.66-0.581,3.554-0.871,5.686-0.871c2.347,0,4.424,0.311,6.232,0.932
	c1.808,0.621,3.338,1.592,4.593,2.913c1.254,1.322,2.206,2.996,2.853,5.018c0.647,2.023,0.971,4.426,0.971,7.205V50.85h-10.44
	V25.842c0-1.295-0.095-2.468-0.284-3.521c-0.189-1.051-0.533-1.956-1.032-2.711c-0.5-0.754-1.188-1.341-2.064-1.76
	c-0.876-0.417-1.99-0.626-3.338-0.626c-1.403,0-2.711,0.209-3.925,0.626c-1.214,0.419-2.3,1.012-3.257,1.78
	c-0.958,0.77-1.788,1.68-2.489,2.733c-0.702,1.051-1.254,2.212-1.659,3.479c-0.297,0.863-0.5,1.767-0.607,2.711
	c-0.108,0.944-0.162,1.916-0.162,2.913V50.85H43.729V8.604z"/>
<path fill="#777776" d="M92.72,17.626h-5.463V9.25h5.747V0h10.279v9.25h9.591v8.376h-9.591v16.39c0,1.754,0.296,3.149,0.89,4.188
	c0.593,1.039,1.321,1.841,2.186,2.408c0.863,0.567,1.773,0.938,2.731,1.113c0.958,0.176,1.801,0.264,2.529,0.264
	c0.296,0,0.56-0.008,0.789-0.022c0.229-0.012,0.425-0.032,0.587-0.06c0.189-0.027,0.364-0.054,0.526-0.082v9.188
	c-0.244,0.053-0.526,0.093-0.85,0.119c-0.566,0.082-1.349,0.122-2.347,0.122s-2.118-0.067-3.359-0.202
	c-1.241-0.136-2.516-0.397-3.824-0.789c-1.309-0.391-2.59-0.942-3.845-1.658s-2.367-1.66-3.339-2.833
	c-0.971-1.174-1.753-2.617-2.346-4.33c-0.594-1.713-0.891-3.743-0.891-6.091V17.626z"/>
<path fill="#FFA000" d="M197.628,38.266c0.944,0.863,2.01,1.633,3.197,2.307c1.024,0.594,2.239,1.126,3.642,1.599
	c1.402,0.472,2.968,0.708,4.694,0.708c0.729,0,1.43-0.081,2.104-0.243c0.674-0.162,1.268-0.405,1.78-0.729
	c0.512-0.323,0.917-0.721,1.213-1.193c0.298-0.472,0.447-1.019,0.447-1.64c0-0.781-0.298-1.469-0.892-2.064
	c-0.594-0.593-1.37-1.146-2.326-1.659c-0.958-0.513-2.051-1.004-3.278-1.476c-1.228-0.473-2.488-0.998-3.783-1.579
	c-1.295-0.58-2.558-1.228-3.784-1.943c-1.228-0.714-2.32-1.55-3.276-2.508c-0.959-0.958-1.735-2.078-2.328-3.359
	c-0.595-1.281-0.891-2.772-0.891-4.471c0-1.969,0.411-3.723,1.234-5.262c0.823-1.537,1.962-2.839,3.42-3.905
	c1.457-1.064,3.169-1.875,5.138-2.428c1.971-0.552,4.088-0.83,6.354-0.83c2.401,0,4.484,0.25,6.252,0.75
	c1.767,0.5,3.243,1.059,4.432,1.679c1.376,0.703,2.549,1.498,3.521,2.388l-3.925,7.769c-0.784-0.674-1.7-1.28-2.753-1.82
	c-0.89-0.459-1.976-0.877-3.256-1.255c-1.282-0.378-2.731-0.567-4.352-0.567c-0.674,0-1.335,0.075-1.983,0.222
	c-0.646,0.149-1.221,0.379-1.72,0.688c-0.499,0.311-0.904,0.708-1.213,1.194c-0.311,0.486-0.465,1.052-0.465,1.699
	c0,0.757,0.296,1.417,0.89,1.983c0.593,0.567,1.369,1.093,2.326,1.579c0.957,0.487,2.051,0.966,3.278,1.437
	c1.228,0.473,2.488,0.991,3.783,1.558c1.295,0.567,2.557,1.208,3.784,1.924c1.228,0.713,2.319,1.55,3.278,2.508
	c0.957,0.958,1.732,2.078,2.326,3.36c0.593,1.28,0.89,2.771,0.89,4.472c0,1.754-0.37,3.405-1.113,4.956
	c-0.741,1.553-1.807,2.9-3.195,4.048c-1.39,1.146-3.083,2.05-5.079,2.711c-1.997,0.66-4.249,0.99-6.759,0.99
	c-2.645,0-4.983-0.323-7.021-0.97c-2.037-0.648-3.757-1.362-5.16-2.145c-1.646-0.892-3.062-1.929-4.248-3.117L197.628,38.266z"/>
<rect x="184.47" y="60.095" fill="#FFA000" width="5.032" height="10.526"/>
<rect x="195.112" y="60.095" fill="#FFA000" width="7.23" height="10.526"/>
<rect x="207.566" y="60.095" fill="#FFA000" width="10.527" height="10.526"/>
<rect x="222.584" y="60.095" fill="#777776" width="10.526" height="10.526"/>
<path fill="#FFA000" d="M188.227,17.282c-0.796-2.09-1.942-3.857-3.439-5.301c-1.497-1.442-3.339-2.535-5.524-3.278
	c-2.186-0.741-4.667-1.113-7.445-1.113c-2.536,0-4.811,0.278-6.818,0.83c-2.011,0.553-3.743,1.153-5.2,1.801
	c-1.674,0.755-3.184,1.618-4.533,2.589l3.967,7.526c1.079-0.753,2.252-1.429,3.52-2.023c1.079-0.512,2.314-0.977,3.703-1.395
	c1.39-0.419,2.854-0.627,4.392-0.627c1.158,0,2.239,0.129,3.236,0.384c0.999,0.256,1.861,0.675,2.59,1.255
	c0.729,0.58,1.295,1.35,1.699,2.307c0.405,0.957,0.607,2.125,0.607,3.5v0.606h-1.415c-1.161,0-2.577,0.042-4.25,0.122
	c-1.673,0.082-3.439,0.283-5.301,0.607c-1.862,0.324-3.718,0.79-5.564,1.396c-1.85,0.606-3.508,1.444-4.979,2.51
	s-2.664,2.386-3.581,3.964c-0.594,1.021-0.991,2.183-1.201,3.479c-1.267,1.125-3.777,3.077-4.95,3.785
	c-1.132,0.676-2.453,1.289-3.965,1.842c-1.511,0.554-3.156,0.83-4.938,0.83c-1.996,0-3.804-0.357-5.423-1.073
	c-1.618-0.714-3.001-1.673-4.146-2.873c-1.147-1.201-2.03-2.603-2.651-4.208c-0.621-1.605-0.93-3.298-0.93-5.079
	c0-1.808,0.303-3.506,0.909-5.099c0.607-1.592,1.47-2.98,2.59-4.167c1.119-1.188,2.469-2.125,4.047-2.813
	c1.578-0.688,3.338-1.032,5.281-1.032c1.673,0,3.184,0.243,4.533,0.729c1.348,0.484,2.508,1.011,3.479,1.578
	c1.133,0.674,2.145,1.431,3.034,2.267l4.613-7.203c-1.106-1.188-2.44-2.239-4.006-3.158c-0.675-0.403-1.43-0.794-2.266-1.173
	c-0.837-0.377-1.762-0.713-2.772-1.012c-1.012-0.296-2.118-0.532-3.318-0.708c-1.2-0.174-2.488-0.263-3.864-0.263
	c-3.507,0-6.671,0.588-9.489,1.761c-2.82,1.173-5.228,2.772-7.225,4.795c-1.996,2.023-3.534,4.378-4.613,7.061
	c-1.079,2.686-1.618,5.524-1.618,8.519c0,3.075,0.539,5.955,1.618,8.64c1.079,2.686,2.617,5.024,4.613,7.021
	c1.997,1.997,4.404,3.575,7.225,4.734c2.818,1.16,5.982,1.739,9.489,1.739c1.401,0,2.731-0.095,3.986-0.283s2.421-0.445,3.499-0.769
	c1.079-0.323,2.078-0.694,2.995-1.113c0.917-0.417,1.74-0.843,2.468-1.274c0.943-0.553,2.355-1.582,3.644-2.61
	c0.646,0.996,1.413,1.876,2.306,2.632c1.322,1.119,2.854,1.969,4.594,2.549c1.739,0.58,3.554,0.869,5.442,0.869
	c1.591,0,3.022-0.182,4.29-0.545c1.268-0.365,2.374-0.83,3.318-1.396s1.754-1.166,2.428-1.802c0.674-0.632,1.221-1.232,1.64-1.8
	c0.418-0.566,0.802-1.215,1.153-1.942h0.161c-0.026,0.297-0.054,0.594-0.081,0.89c-0.027,0.271-0.047,0.587-0.06,0.951
	c-0.015,0.365-0.021,0.748-0.021,1.153v3.479h9.711V24.425C189.42,21.754,189.023,19.373,188.227,17.282z M179.062,32.518
	c0,1.295-0.236,2.597-0.709,3.907c-0.472,1.308-1.134,2.503-1.983,3.582c-0.85,1.079-1.861,1.956-3.035,2.63
	c-1.172,0.676-2.447,1.012-3.824,1.012c-1.079,0-2.016-0.155-2.812-0.466c-0.797-0.31-1.456-0.715-1.983-1.215
	c-0.526-0.497-0.924-1.078-1.192-1.739c-0.271-0.661-0.405-1.342-0.405-2.043c0-0.998,0.222-1.847,0.667-2.549
	c0.446-0.702,1.038-1.301,1.78-1.8s1.599-0.897,2.57-1.194c0.972-0.297,1.983-0.526,3.035-0.689
	c1.051-0.162,2.098-0.269,3.136-0.323c1.038-0.053,2.017-0.081,2.934-0.081h1.822V32.518z"/>
<text transform="matrix(1 0 0 1 -286.021 460.8857)" display="none" font-family="'MuseoSans-300'" font-size="9.5124">gebäudeautomation</text>
<text transform="matrix(1.2414 0 0 1 -148.7896 441.2676)" display="none" fill="#707173" font-family="'FranklinGothic-MediumItalic'" font-size="35.1105">server</text>
<text transform="matrix(1 0 0 1 -275.7622 460.9209)" display="none" fill="#FFFFFF" font-family="'MuseoSans-300'" font-size="9.5124">automation server</text>
<g display="none">
	<path display="inline" fill="#FFFFFF" d="M-91.203,136.851c0,2.161,0.103,4.265,0.36,5.958h-4.056l-0.362-3.137h-0.152
		c-1.389,1.959-4.057,3.699-7.602,3.699c-5.032,0-7.6-3.542-7.6-7.137c0-6.005,5.34-9.291,14.942-9.242v-0.519
		c0-1.996-0.563-5.745-5.647-5.691c-2.363,0-4.776,0.663-6.522,1.844l-1.027-3.031c2.056-1.281,5.084-2.151,8.216-2.151
		c7.603,0,9.45,5.183,9.45,10.113V136.851z M-95.57,130.124c-4.93-0.102-10.525,0.77-10.525,5.596c0,2.979,1.953,4.309,4.211,4.309
		c3.287,0,5.391-2.046,6.11-4.155c0.152-0.51,0.203-1.021,0.203-1.431V130.124z"/>
	<path display="inline" fill="#FFFFFF" d="M-63.011,135.975c0,2.62,0.053,4.88,0.209,6.834h-4.008l-0.258-4.055h-0.101
		c-1.129,2.003-3.8,4.617-8.218,4.617c-3.905,0-8.575-2.208-8.575-10.881v-14.534h4.517v13.707c0,4.721,1.492,7.959,5.548,7.959
		c3.028,0,5.136-2.101,5.956-4.154c0.258-0.616,0.414-1.444,0.414-2.313v-15.198h4.515V135.975z"/>
	<path display="inline" fill="#FFFFFF" d="M-49.968,111.999v5.957h6.472v3.437h-6.472v13.405c0,3.078,0.874,4.824,3.391,4.824
		c1.232,0,1.95-0.1,2.617-0.31l0.206,3.441c-0.872,0.313-2.259,0.617-4.004,0.617c-2.107,0-3.801-0.717-4.879-1.897
		c-1.234-1.388-1.748-3.598-1.748-6.522v-13.559h-3.849v-3.437h3.849v-4.624L-49.968,111.999z"/>
	<path display="inline" fill="#FFFFFF" d="M-16.124,130.171c0,9.198-6.417,13.2-12.378,13.2c-6.674,0-11.912-4.929-11.912-12.783
		c0-8.272,5.496-13.145,12.323-13.145C-20.953,117.443-16.124,122.626-16.124,130.171z M-35.793,130.429
		c0,5.444,3.082,9.553,7.497,9.553c4.316,0,7.55-4.054,7.55-9.654c0-4.21-2.104-9.5-7.447-9.5
		C-33.482,120.827-35.793,125.758-35.793,130.429z"/>
	<path display="inline" fill="#FFFFFF" d="M-10.324,124.676c0-2.618-0.103-4.667-0.206-6.72h3.957l0.203,4.053h0.155
		c1.386-2.36,3.698-4.565,7.856-4.565c3.339,0,5.904,2.051,6.984,4.976h0.103c0.773-1.438,1.798-2.467,2.827-3.229
		c1.489-1.135,3.081-1.746,5.44-1.746c3.34,0,8.219,2.151,8.219,10.777v14.588h-4.416V128.79c0-4.83-1.797-7.651-5.392-7.651
		c-2.619,0-4.571,1.899-5.392,4.055c-0.206,0.665-0.36,1.441-0.36,2.257v15.358H5.239v-14.896c0-3.953-1.748-6.774-5.19-6.774
		c-2.773,0-4.877,2.257-5.597,4.519c-0.255,0.616-0.358,1.435-0.358,2.204v14.947h-4.417V124.676z"/>
	<path display="inline" fill="#FFFFFF" d="M50.069,136.851c0,2.161,0.103,4.265,0.358,5.958h-4.053l-0.359-3.137h-0.158
		c-1.385,1.959-4.054,3.699-7.6,3.699c-5.032,0-7.6-3.542-7.6-7.137c0-6.005,5.341-9.291,14.943-9.242v-0.519
		c0-1.996-0.563-5.745-5.649-5.691c-2.36,0-4.776,0.663-6.521,1.844l-1.027-3.031c2.056-1.281,5.084-2.151,8.215-2.151
		c7.603,0,9.451,5.183,9.451,10.113V136.851z M45.702,130.124c-4.929-0.102-10.526,0.77-10.526,5.596
		c0,2.979,1.955,4.309,4.213,4.309c3.287,0,5.393-2.046,6.11-4.155c0.152-0.51,0.203-1.021,0.203-1.431V130.124z"/>
	<path display="inline" fill="#FFFFFF" d="M62.702,111.999v5.957h6.47v3.437h-6.47v13.405c0,3.078,0.873,4.824,3.39,4.824
		c1.233,0,1.949-0.1,2.617-0.31l0.206,3.441c-0.874,0.313-2.258,0.617-4.006,0.617c-2.104,0-3.797-0.717-4.878-1.897
		c-1.233-1.388-1.748-3.598-1.748-6.522v-13.559h-3.85v-3.437h3.85v-4.624L62.702,111.999z"/>
	<path display="inline" fill="#FFFFFF" d="M79.393,110.97c0,1.539-1.081,2.772-2.876,2.772c-1.644,0-2.723-1.233-2.723-2.772
		c0-1.541,1.131-2.826,2.827-2.826C78.262,108.144,79.393,109.37,79.393,110.97z M74.36,142.809v-24.853h4.517v24.853H74.36z"/>
	<path display="inline" fill="#FFFFFF" d="M108.972,130.171c0,9.198-6.419,13.2-12.375,13.2c-6.678,0-11.916-4.929-11.916-12.783
		c0-8.272,5.496-13.145,12.326-13.145C104.142,117.443,108.972,122.626,108.972,130.171z M89.301,130.429
		c0,5.444,3.082,9.553,7.5,9.553c4.315,0,7.547-4.054,7.547-9.654c0-4.21-2.104-9.5-7.444-9.5
		C91.616,120.827,89.301,125.758,89.301,130.429z"/>
	<path display="inline" fill="#FFFFFF" d="M114.774,124.676c0-2.618-0.05-4.667-0.207-6.72h4.005l0.259,4.102h0.1
		c1.233-2.307,4.111-4.614,8.22-4.614c3.441,0,8.783,2.051,8.783,10.575v14.79h-4.521v-14.331c0-4-1.488-7.339-5.751-7.339
		c-2.927,0-5.24,2.104-6.059,4.619c-0.209,0.569-0.307,1.334-0.307,2.104v14.947h-4.521V124.676z"/>
	<path display="inline" fill="#FFFFFF" d="M153.751,138.236c1.386,0.822,3.749,1.745,6.007,1.745c3.235,0,4.779-1.587,4.779-3.695
		c0-2.163-1.287-3.289-4.572-4.513c-4.521-1.649-6.626-4.064-6.626-7.039c0-4.006,3.285-7.291,8.577-7.291
		c2.515,0,4.727,0.657,6.059,1.532l-1.08,3.292c-0.973-0.617-2.773-1.485-5.082-1.485c-2.67,0-4.11,1.533-4.11,3.382
		c0,2.063,1.44,2.979,4.673,4.268c4.268,1.591,6.524,3.746,6.524,7.441c0,4.413-3.44,7.498-9.244,7.498
		c-2.722,0-5.237-0.717-6.983-1.74L153.751,138.236z"/>
	<path display="inline" fill="#FFFFFF" d="M177.319,131.203c0.108,6.105,3.952,8.626,8.53,8.626c3.227,0,5.237-0.565,6.88-1.281
		l0.819,3.23c-1.594,0.719-4.36,1.593-8.317,1.593c-7.654,0-12.225-5.077-12.225-12.585c0-7.49,4.421-13.343,11.66-13.343
		c8.164,0,10.266,7.081,10.266,11.651c0,0.928-0.05,1.593-0.15,2.108H177.319z M190.57,127.967c0.051-2.826-1.184-7.297-6.265-7.297
		c-4.619,0-6.569,4.166-6.933,7.297H190.57z"/>
	<path display="inline" fill="#FFFFFF" d="M200.636,125.711c0-2.932-0.055-5.447-0.206-7.755h3.952l0.209,4.929h0.15
		c1.133-3.338,3.904-5.441,6.938-5.441c0.46,0,0.821,0.047,1.229,0.1v4.261c-0.464-0.105-0.921-0.105-1.539-0.105
		c-3.185,0-5.445,2.366-6.061,5.752c-0.103,0.615-0.156,1.393-0.156,2.107v13.251h-4.517V125.711z"/>
	<path display="inline" fill="#FFFFFF" d="M220.562,117.956l4.882,13.918c0.815,2.31,1.481,4.36,1.998,6.42h0.153
		c0.563-2.06,1.284-4.11,2.105-6.42l4.828-13.918h4.721l-9.753,24.853h-4.313l-9.45-24.853H220.562z"/>
	<path display="inline" fill="#FFFFFF" d="M245.619,131.203c0.107,6.105,3.952,8.626,8.523,8.626c3.234,0,5.236-0.565,6.884-1.281
		l0.821,3.23c-1.592,0.719-4.362,1.593-8.316,1.593c-7.653,0-12.223-5.077-12.223-12.585c0-7.49,4.418-13.343,11.656-13.343
		c8.168,0,10.269,7.081,10.269,11.651c0,0.928-0.053,1.593-0.152,2.108H245.619z M258.869,127.967
		c0.051-2.826-1.182-7.297-6.263-7.297c-4.627,0-6.572,4.166-6.932,7.297H258.869z"/>
	<path display="inline" fill="#FFFFFF" d="M268.935,125.711c0-2.932-0.055-5.447-0.207-7.755h3.954l0.21,4.929h0.148
		c1.133-3.338,3.905-5.441,6.933-5.441c0.464,0,0.82,0.047,1.236,0.1v4.261c-0.464-0.105-0.927-0.105-1.545-0.105
		c-3.183,0-5.44,2.366-6.058,5.752c-0.101,0.615-0.154,1.393-0.154,2.107v13.251h-4.518V125.711z"/>
</g>
<g>
	<path fill="#FFA000" d="M233.356,6.342c0,2.296-1.847,4.118-4.192,4.118s-4.217-1.822-4.217-4.118c0-2.295,1.871-4.092,4.242-4.092
		C231.509,2.25,233.356,4.046,233.356,6.342z M225.995,6.342c0,1.822,1.373,3.269,3.194,3.269c1.771,0.025,3.119-1.447,3.119-3.244
		c0-1.821-1.348-3.293-3.169-3.293C227.368,3.073,225.995,4.545,225.995,6.342z M228.515,8.463h-0.948V4.371
		c0.374-0.05,0.898-0.125,1.572-0.125c0.773,0,1.123,0.125,1.397,0.324c0.249,0.175,0.424,0.474,0.424,0.874
		c0,0.499-0.374,0.823-0.849,0.973v0.05c0.399,0.125,0.6,0.449,0.724,0.998c0.125,0.624,0.225,0.849,0.3,0.998h-0.998
		c-0.125-0.149-0.2-0.499-0.324-0.998c-0.075-0.424-0.325-0.624-0.849-0.624h-0.449V8.463z M228.541,6.167h0.449
		c0.523,0,0.947-0.175,0.947-0.599c0-0.374-0.274-0.624-0.873-0.624c-0.25,0-0.424,0.025-0.523,0.05V6.167z"/>
</g>
</svg>
