<svg xmlns="http://www.w3.org/2000/svg" id="InfraOne" version="1.1" viewBox="114.8 360.39 363.81 97.45">
  <!-- Generator: Adobe Illustrator 29.5.1, SVG Export Plug-In . SVG Version: 2.1.0 Build 141)  -->
  <defs>
    <style>
      .st0 {
        fill: #3c9646;
      }
    </style>
  </defs>
  <g>
    <path d="M229.72,374.72v45.98h-8.62v-45.98h8.62Z"/>
    <path d="M239.01,395.14c0-2.93,0-6.04-.07-8.61h8.01c.18.92.29,3.71.32,4.78,1.23-2.41,4-5.58,10.2-5.58,6.71,0,11.36,4.4,11.36,13.15v21.82h-8.26v-20.87c0-4.29-1.53-7.3-6.05-7.3-4.84,0-7.23,3.13-7.23,9.45v18.72h-8.26v-25.56Z"/>
    <path d="M278.98,420.7v-27.83h-5.16v-6.34h5.16v-3.37c0-6.8,3.13-11.75,10.58-11.75,1.46,0,3.35.15,4.19.42v6.64c-.62-.13-1.52-.21-2.33-.21-3.04,0-4.17,1.39-4.17,5.5v2.77h6.27v6.34h-6.27v27.83h-8.26Z"/>
    <path d="M298.13,395.8c0-3.86-.02-6.77-.07-9.27h8.1c.11.83.23,3.98.23,6.33,1.6-4.15,5.39-7.04,11.15-7.12v7.97c-6.91-.05-11.15,2.41-11.15,11.53v15.47h-8.27v-24.9Z"/>
    <path d="M349.64,412.34c0,3.21.27,7.49.46,8.37h-7.9c-.27-.7-.46-2.45-.5-3.72-1.22,2.04-3.68,4.52-9.92,4.52-8.18,0-11.64-5.36-11.64-10.62,0-7.73,6.16-11.29,16.23-11.29h5.2v-2.37c0-2.62-.9-5.45-5.97-5.45-4.57,0-5.47,2.08-5.97,4.62h-7.89c.49-5.61,3.96-10.71,14.16-10.66,8.88.05,13.75,3.56,13.75,11.58v15.03ZM341.58,404.77h-4.42c-6.07,0-8.7,1.79-8.7,5.59,0,2.84,1.83,5.09,5.5,5.09,6.76,0,7.62-4.64,7.62-9.72v-.96Z"/>
    <path d="M410.46,395.14c0-2.93,0-6.04-.07-8.61h8.01c.18.92.29,3.71.32,4.78,1.23-2.41,4-5.58,10.2-5.58,6.71,0,11.36,4.4,11.36,13.15v21.82h-8.26v-20.87c0-4.29-1.53-7.3-6.05-7.3-4.83,0-7.24,3.13-7.24,9.45v18.72h-8.26v-25.56Z"/>
    <path d="M455.43,405.32c.02,5.17,2.62,9.61,7.69,9.61,4.43,0,5.77-1.99,6.73-4.2h8.29c-1.26,4.25-4.97,10.77-15.24,10.77-11.08,0-15.8-8.52-15.8-17.43,0-10.53,5.37-18.34,16.15-18.34,11.5,0,15.36,8.61,15.36,16.72,0,1.12,0,1.91-.11,2.87h-23.07ZM470.31,400.06c-.07-4.53-2.07-8.27-7.1-8.27s-7.13,3.48-7.58,8.27h14.68Z"/>
  </g>
  <g>
    <path d="M225.09,439.09v18.46h-3.99v-18.46h3.99Z"/>
    <path d="M240.4,442.37h-5.61v-3.27h15.2v3.27h-5.59v15.19h-4v-15.19Z"/>
    <path d="M273.22,452.15c.42,1.85,1.75,2.67,3.89,2.67s3.04-.84,3.04-2.19c0-1.5-.89-2.16-4.05-2.89-5.02-1.18-6.27-3.01-6.27-5.5,0-3.22,2.41-5.4,6.78-5.4,4.9,0,6.86,2.64,7.12,5.34h-4.02c-.19-1.14-.82-2.37-3.2-2.37-1.62,0-2.6.67-2.6,1.98s.78,1.8,3.77,2.5c5.37,1.27,6.55,3.26,6.55,5.87,0,3.37-2.55,5.68-7.43,5.68s-7.16-2.31-7.6-5.67h4.02Z"/>
    <path d="M311.38,448.26c0,5.14-3.09,9.56-9.08,9.56s-8.83-4.21-8.83-9.5,3.35-9.5,9.09-9.5c5.4,0,8.82,3.78,8.82,9.44ZM297.59,448.25c0,3.6,1.58,6.33,4.86,6.33,3.55,0,4.81-2.97,4.81-6.26,0-3.49-1.43-6.24-4.87-6.24s-4.79,2.58-4.79,6.17Z"/>
    <path d="M321.84,439.09h3.99v15.19h9.2l-.46,3.27h-12.73v-18.46Z"/>
    <path d="M347.87,439.09v11c0,3.54,1.82,4.59,3.81,4.59,2.28,0,3.72-1.24,3.72-4.59v-11h4v10.8c0,6.31-3.7,7.92-7.77,7.92s-7.76-1.68-7.76-7.85v-10.88h4Z"/>
    <path d="M374.62,442.37h-5.61v-3.27h15.2v3.27h-5.59v15.19h-4v-15.19Z"/>
    <path d="M397.64,439.09v18.46h-3.99v-18.46h3.99Z"/>
    <path d="M426,448.26c0,5.14-3.09,9.56-9.08,9.56s-8.83-4.21-8.83-9.5,3.35-9.5,9.09-9.5c5.4,0,8.82,3.78,8.82,9.44ZM412.21,448.25c0,3.6,1.58,6.33,4.85,6.33,3.55,0,4.81-2.97,4.81-6.26,0-3.49-1.43-6.24-4.87-6.24s-4.79,2.58-4.79,6.17Z"/>
    <path d="M436.45,457.56v-18.46h4.95c2.31,4.15,6.57,11.62,7.42,13.64h.05c-.21-1.93-.2-5.13-.2-8.16v-5.47h3.62v18.46h-4.69c-1.98-3.61-6.71-12.2-7.62-14.33h-.05c.13,1.62.18,5.41.18,8.72v5.62h-3.64Z"/>
    <path d="M466.24,452.15c.42,1.85,1.75,2.67,3.89,2.67s3.04-.84,3.04-2.19c0-1.5-.89-2.16-4.05-2.89-5.02-1.18-6.27-3.01-6.27-5.5,0-3.22,2.41-5.4,6.78-5.4,4.9,0,6.86,2.64,7.12,5.34h-4.02c-.19-1.14-.82-2.37-3.2-2.37-1.62,0-2.6.67-2.6,1.98s.78,1.8,3.77,2.5c5.37,1.27,6.55,3.26,6.55,5.87,0,3.37-2.55,5.68-7.43,5.68s-7.16-2.31-7.6-5.67h4.02Z"/>
  </g>
  <path class="st0" d="M195.74,419.92c-3.55-2.05-7.9-1.43-10.75,1.23l-15.64-9.03s.02-.07.03-.11c.01-.05.03-.1.05-.15,0-.03.02-.06.03-.09.05-.19.1-.38.14-.57.02-.09.04-.17.06-.26,0-.02,0-.03.01-.05,0-.05.02-.09.03-.14.04-.18.07-.37.09-.56.01-.1.03-.2.04-.3,0-.07.02-.13.03-.2.02-.18.03-.35.04-.53,0-.1.01-.2.02-.29,0-.09,0-.17,0-.26,0-.09.01-.17.01-.26s0-.17-.01-.26c0-.09,0-.17,0-.26,0-.1,0-.2-.02-.3-.01-.18-.03-.35-.04-.53,0-.07-.02-.13-.03-.2-.01-.1-.03-.2-.04-.3-.03-.19-.06-.37-.09-.56,0-.05-.02-.09-.03-.14,0-.02,0-.03-.01-.05-.02-.09-.04-.17-.06-.26-.04-.19-.09-.38-.14-.57,0-.03-.02-.06-.03-.09-.01-.05-.03-.1-.05-.15-.01-.04-.02-.07-.03-.11l15.64-9.03c2.84,2.66,7.2,3.28,10.75,1.23,4.35-2.51,5.83-8.07,3.33-12.41-2.51-4.35-8.07-5.83-12.41-3.33-3.55,2.05-5.19,6.13-4.31,9.92l-15.64,9.03s-.05-.05-.08-.08c-.03-.04-.07-.08-.1-.11-.02-.02-.04-.04-.06-.07-.14-.14-.28-.28-.42-.41-.06-.06-.13-.12-.2-.18-.01-.01-.03-.02-.04-.04-.03-.03-.07-.06-.1-.09-.14-.12-.29-.24-.44-.36-.08-.06-.16-.12-.24-.19-.05-.04-.11-.08-.16-.12-.14-.1-.29-.2-.44-.3-.08-.05-.16-.11-.25-.16-.07-.05-.14-.09-.22-.13-.07-.04-.14-.09-.22-.14-.07-.04-.15-.08-.23-.12-.08-.04-.15-.08-.23-.12-.09-.05-.17-.09-.26-.13-.16-.08-.32-.16-.48-.23-.06-.03-.13-.05-.19-.08-.09-.04-.18-.08-.27-.11-.18-.07-.35-.14-.53-.2-.05-.02-.09-.03-.14-.04-.02,0-.03-.01-.05-.02-.08-.03-.17-.05-.25-.08-.19-.06-.38-.11-.57-.16-.03,0-.06-.01-.09-.02-.05-.01-.1-.02-.15-.03-.04,0-.07-.02-.1-.03v-18.06c3.73-1.13,6.44-4.59,6.44-8.69,0-5.02-4.07-9.09-9.09-9.09s-9.09,4.07-9.09,9.09c0,4.1,2.71,7.56,6.44,8.69v18.06s-.07.02-.11.03c-.05.01-.1.02-.15.03-.03,0-.06.01-.09.02-.19.05-.38.1-.57.16-.08.03-.17.05-.25.08-.02,0-.03.01-.05.02-.04.01-.09.03-.14.04-.18.06-.36.13-.53.2-.09.04-.19.07-.28.11-.06.03-.12.05-.18.08-.16.07-.32.15-.48.23-.09.04-.18.09-.26.13-.08.04-.15.08-.23.12-.08.04-.15.08-.23.12-.07.04-.14.09-.22.14-.07.04-.15.09-.22.14-.08.05-.17.11-.25.16-.15.1-.29.2-.44.3-.05.04-.11.08-.16.12-.08.06-.16.12-.24.18-.15.12-.3.24-.44.36-.04.03-.07.07-.11.1-.01.01-.03.02-.04.04-.06.06-.13.12-.19.18-.14.13-.29.27-.42.41-.02.02-.04.05-.06.07-.04.04-.07.08-.1.11-.02.03-.05.05-.08.08l-15.64-9.03c.88-3.79-.76-7.87-4.31-9.92-4.35-2.51-9.9-1.02-12.41,3.33-2.51,4.35-1.02,9.9,3.33,12.41,3.55,2.05,7.9,1.43,10.75-1.23l15.64,9.03s-.02.07-.03.11c-.02.05-.03.1-.05.15,0,.03-.02.06-.03.09-.05.19-.1.38-.15.57-.02.09-.04.17-.06.26,0,.02,0,.03-.01.05,0,.05-.02.09-.03.14-.04.18-.07.37-.09.56-.01.1-.03.2-.04.3,0,.07-.02.13-.03.2-.02.18-.03.35-.04.53,0,.1-.01.2-.02.3,0,.08,0,.17,0,.25,0,.09-.01.17-.01.26s0,.17.01.26c0,.09,0,.17,0,.26,0,.1,0,.2.02.29.01.18.03.36.04.53,0,.07.02.13.03.2.01.1.03.2.04.3.03.19.06.38.09.56,0,.05.02.09.03.14,0,.02,0,.04.01.05.02.08.04.17.06.25.05.19.09.38.15.57,0,.03.02.06.03.09.01.05.03.1.05.15.01.03.02.07.03.1l-15.64,9.03c-2.84-2.66-7.2-3.28-10.75-1.23-4.35,2.51-5.83,8.07-3.33,12.41,2.51,4.35,8.07,5.83,12.41,3.33,3.55-2.05,5.19-6.13,4.31-9.92l15.64-9.03s.05.05.08.08c.03.04.07.07.1.11.02.02.04.05.06.07.14.14.28.28.42.41.06.06.13.12.19.18.01.01.03.02.04.03.04.03.07.07.11.1.14.12.29.24.44.36.08.06.16.12.24.18.05.04.11.08.16.12.14.1.29.2.44.3.08.05.16.11.25.16.07.05.15.09.22.14.07.04.14.09.22.14.07.04.15.08.23.12.07.04.15.08.22.12.09.05.18.09.26.13.16.08.32.16.48.23.06.03.12.05.19.08.09.04.19.08.28.11.18.07.35.14.53.2.04.02.09.03.14.04.02,0,.03.01.05.02.08.03.17.05.25.08.19.06.38.11.56.16.03,0,.06.01.09.02.05.01.1.02.15.03.04,0,.07.02.11.03v18.06c-3.73,1.13-6.44,4.59-6.44,8.69,0,5.02,4.07,9.09,9.09,9.09s9.09-4.07,9.09-9.09c0-4.1-2.71-7.56-6.44-8.69v-18.06s.07-.02.11-.03c.05-.01.1-.02.15-.03.03,0,.06-.01.09-.02.19-.05.38-.1.57-.16.08-.03.17-.05.25-.08.02,0,.03-.01.05-.02.05-.01.09-.03.14-.04.18-.06.36-.13.53-.2.09-.04.19-.07.28-.11.06-.03.12-.05.19-.08.16-.07.32-.15.48-.23.09-.04.18-.09.26-.13.08-.04.15-.08.23-.12.08-.04.15-.08.23-.12s.14-.09.22-.14c.07-.04.15-.09.22-.14.08-.05.17-.11.25-.16.15-.1.29-.2.44-.3.05-.04.11-.08.16-.12.08-.06.16-.12.24-.18.15-.12.3-.24.44-.36.04-.03.07-.06.1-.1.01-.01.03-.02.04-.04.07-.06.13-.12.2-.18.14-.13.28-.27.42-.41.02-.02.04-.05.06-.07.03-.04.07-.07.1-.11.03-.03.05-.05.08-.08l15.64,9.03c-.88,3.79.76,7.87,4.31,9.92,4.35,2.51,9.9,1.02,12.41-3.33,2.51-4.35,1.02-9.9-3.33-12.41ZM164.51,408.56c0,.11,0,.23-.02.34,0,.04,0,.08,0,.12,0,.09-.02.19-.03.28-.01.09-.02.17-.04.26,0,.04-.01.08-.02.12-.02.11-.04.22-.07.33-.01.06-.03.11-.04.17-.01.06-.03.11-.05.17-.03.11-.07.21-.1.32-.01.04-.03.08-.04.12-.03.08-.06.16-.09.24-.04.09-.07.17-.11.26-.02.04-.04.08-.05.11-.05.1-.1.2-.15.3-.03.06-.06.11-.09.17-.03.06-.07.11-.1.16-.06.09-.12.19-.18.28-.02.03-.05.07-.07.1-.05.08-.11.15-.17.23-.05.07-.11.13-.16.2-.03.03-.05.06-.08.09-.07.09-.15.17-.23.25-.04.04-.08.08-.12.12-.04.04-.08.08-.12.12-.08.08-.16.15-.25.23-.03.03-.06.05-.09.08-.07.06-.13.11-.2.16-.07.06-.15.11-.23.17-.03.02-.07.05-.1.07-.09.06-.19.12-.28.18-.05.03-.11.07-.16.1-.05.03-.11.06-.17.09-.1.05-.2.1-.3.15-.04.02-.07.04-.11.05-.09.04-.17.08-.26.11-.08.03-.16.06-.24.09-.04.01-.08.03-.11.04-.11.04-.21.07-.32.1-.06.02-.11.03-.17.05-.06.01-.11.03-.17.04-.11.03-.22.05-.33.07-.04,0-.08.01-.12.02-.08.01-.17.03-.25.04-.09.01-.19.02-.28.03-.04,0-.08,0-.12,0-.11,0-.22.01-.33.02-.06,0-.13,0-.19,0-.06,0-.13,0-.19,0-.11,0-.22,0-.33-.02-.04,0-.08,0-.12,0-.09,0-.19-.02-.28-.03-.08-.01-.17-.02-.25-.04-.04,0-.08-.01-.12-.02-.11-.02-.22-.05-.33-.07-.06-.01-.11-.03-.16-.04-.06-.02-.11-.03-.17-.05-.11-.03-.21-.07-.32-.1-.04-.01-.07-.03-.11-.04-.08-.03-.16-.06-.24-.09-.09-.04-.17-.07-.26-.11-.04-.02-.07-.04-.11-.05-.1-.05-.2-.1-.3-.15-.06-.03-.11-.06-.17-.09-.06-.03-.11-.07-.16-.1-.1-.06-.19-.12-.28-.18-.03-.02-.07-.04-.1-.07-.08-.05-.15-.11-.23-.17-.07-.05-.14-.11-.2-.16-.03-.03-.06-.05-.09-.08-.08-.07-.17-.15-.25-.23-.04-.04-.08-.08-.13-.12-.04-.04-.08-.08-.12-.12-.08-.08-.15-.16-.23-.25-.03-.03-.05-.06-.08-.1-.05-.06-.11-.13-.16-.2-.06-.07-.11-.15-.17-.23-.02-.03-.05-.07-.07-.1-.06-.09-.12-.18-.18-.28-.03-.05-.07-.11-.1-.16-.03-.06-.06-.11-.09-.17-.05-.1-.1-.2-.15-.3-.02-.04-.04-.07-.05-.11-.04-.09-.08-.17-.11-.26-.03-.08-.06-.16-.09-.24-.01-.04-.03-.08-.04-.12-.04-.11-.07-.21-.1-.32-.02-.06-.03-.11-.05-.17-.02-.06-.03-.11-.04-.17-.03-.11-.05-.22-.07-.33,0-.04-.01-.08-.02-.12-.01-.08-.03-.17-.04-.26-.01-.09-.02-.19-.03-.28,0-.04,0-.08,0-.12,0-.11-.01-.22-.02-.34,0-.06,0-.13,0-.19,0-.06,0-.13,0-.19,0-.11,0-.23.02-.34,0-.04,0-.08,0-.12,0-.09.02-.19.03-.28.01-.09.02-.17.04-.26,0-.04.01-.08.02-.12.02-.11.05-.22.07-.33.01-.06.03-.11.04-.17.01-.06.03-.11.05-.17.03-.11.07-.21.1-.32.01-.04.03-.08.04-.12.03-.08.06-.16.09-.24.04-.09.07-.17.11-.26.02-.04.04-.07.05-.11.05-.1.1-.2.15-.3.03-.06.06-.11.09-.17.03-.06.07-.11.1-.16.06-.1.12-.19.18-.28.02-.03.05-.07.07-.1.05-.08.11-.15.17-.23.05-.07.11-.13.16-.2.03-.03.05-.06.08-.09.07-.08.15-.17.23-.25.04-.04.08-.08.12-.12.04-.04.08-.08.12-.12.08-.08.16-.15.25-.23.03-.03.06-.05.09-.08.07-.06.13-.11.2-.16.07-.06.15-.11.23-.17.03-.02.07-.05.1-.07.09-.06.19-.12.28-.18.05-.03.11-.07.16-.1.05-.03.11-.06.17-.09.1-.05.2-.1.3-.15.04-.02.07-.04.11-.05.09-.04.17-.08.26-.11.08-.03.16-.06.24-.09.04-.01.07-.03.11-.04.11-.04.21-.07.32-.1.06-.02.11-.03.17-.05.06-.01.11-.03.17-.04.11-.03.22-.05.33-.07.04,0,.08-.01.12-.02.08-.01.17-.03.25-.04.09-.01.19-.02.28-.03.04,0,.08,0,.12,0,.11,0,.22-.01.33-.02.06,0,.13,0,.19,0,.06,0,.13,0,.19,0,.11,0,.22,0,.33.02.04,0,.08,0,.12,0,.09,0,.19.02.28.03.09.01.17.02.25.04.04,0,.08.01.12.02.11.02.22.04.33.07.06.01.11.03.17.04.06.02.11.03.17.05.11.03.21.07.32.1.04.01.08.03.11.04.08.03.16.06.24.09.09.04.17.07.26.11.04.02.07.04.11.05.1.05.2.1.3.15.06.03.11.06.17.09.05.03.11.07.16.1.1.06.19.12.28.18.03.02.07.04.1.07.08.05.15.11.23.17.07.05.14.11.2.16.03.03.06.05.09.08.08.07.17.15.25.23.04.04.08.08.12.12.04.04.08.08.12.12.08.08.15.16.23.25.03.03.05.06.08.09.05.07.11.13.16.2.06.07.11.15.17.23.02.03.05.07.07.1.06.09.12.19.18.28.03.05.07.11.1.16.03.05.06.11.09.17.05.1.1.2.15.3.02.04.04.08.05.11.04.09.08.17.11.26.03.08.06.16.09.24.01.04.03.08.04.12.04.11.07.21.1.32.02.06.03.11.05.17.02.06.03.11.04.17.03.11.05.22.07.33,0,.04.01.08.02.12.01.08.03.17.04.26.01.09.02.19.03.28,0,.04,0,.08,0,.12,0,.11.01.22.02.34,0,.06,0,.13,0,.19,0,.06,0,.13,0,.19Z"/>
  <path class="st0" d="M388.41,379.94v8.94c4.07,2.65,6.76,7.24,6.76,12.44,0,8.19-6.67,14.86-14.86,14.86s-14.86-6.67-14.86-14.86c0-5.21,2.7-9.79,6.76-12.44v-8.94c-8.63,3.27-14.76,11.61-14.76,21.38,0,12.62,10.23,22.86,22.86,22.86s22.86-10.23,22.86-22.86c0-9.77-6.14-18.11-14.76-21.38Z"/>
  <rect class="st0" x="376.72" y="373.76" width="7.18" height="24.14"/>
</svg>