<?xml version="1.0" encoding="UTF-8"?>
<svg id="Ebene_1" xmlns="http://www.w3.org/2000/svg" version="1.1" viewBox="0 0 452.77 63.27">
  <!-- Generator: Adobe Illustrator 29.7.1, SVG Export Plug-In . SVG Version: 2.1.1 Build 8)  -->
  <defs>
    <style>
      .st0, .st1, .st2, .st3 {
        fill: none;
      }

      .st1 {
        stroke-linecap: round;
      }

      .st1, .st2, .st3, .st4 {
        stroke: #000;
      }

      .st1, .st4 {
        stroke-miterlimit: 10;
      }

      .st5, .st4 {
        fill-rule: evenodd;
      }

      .st6 {
        fill: #fff;
      }

      .st2 {
        stroke-linecap: square;
        stroke-linejoin: round;
        stroke-width: .57px;
      }

      .st3 {
        stroke-miterlimit: 22.93;
      }

      .st3, .st4 {
        stroke-width: .5px;
      }

      .st4 {
        fill: #e52421;
      }
    </style>
  </defs>
  <line class="st0" x1="369.25" y1="296.7" x2="369.25" y2="296.7"/>
  <g id="Ebene_2">
    <g id="Ebene_1-2">
      <path d="M440.7,33.16l-.05.14-.23.67-.36-.11h0c-.25-.08-.5-.17-.73-.23l-.34-.07-.31-.05h-.28c-.08,0-.17,0-.25,0h-.25l-.22.08c-.07.03-.13.06-.19.1h0c-.06.03-.11.08-.16.13-.05.06-.1.12-.14.18-.04.07-.08.15-.1.23-.02.09-.02.18,0,.27,0,.08,0,.16,0,.24,0,.07.03.13.06.19.04.07.08.13.13.19.06.08.13.15.21.22.13.1.28.19.43.26.27.14.68.3,1.05.46l.5.21h0c.2.08.39.17.58.28.15.09.28.21.39.34h0c.09.12.15.25.2.39.06.15.09.3.1.46.01.13.01.25,0,.38h0c0,.12-.03.25-.06.37-.03.12-.07.23-.12.34-.06.11-.13.21-.21.31h0c-.09.1-.2.19-.31.27h0c-.11.09-.24.16-.37.21h0c-.15.07-.31.12-.47.16-.17.04-.34.07-.52.09-.2.01-.4.01-.6,0-.2,0-.39-.03-.59-.06h0c-.34-.07-.67-.17-1-.29h0l-.35-.12.25-.67.35.12h0c.3.11.6.19.91.26h.99l.4-.07c.12-.03.23-.07.34-.12h0l.25-.13h0l.17-.16h0s.08-.1.11-.16c.03-.06.06-.13.07-.2.01-.08.01-.17,0-.25h0c0-.09,0-.18,0-.27,0-.1-.03-.2-.06-.29-.02-.07-.06-.14-.11-.2h0c-.05-.07-.12-.13-.19-.17-.15-.09-.31-.16-.47-.23h0l-.49-.2c-.37-.16-.78-.33-1.1-.49-.2-.1-.38-.21-.56-.34-.12-.1-.22-.21-.32-.33-.08-.1-.15-.21-.21-.32-.06-.12-.1-.25-.12-.38-.05-.27-.03-.56.06-.82.04-.13.1-.25.17-.37.07-.12.15-.22.24-.32.08-.09.18-.17.28-.23h0c.1-.07.2-.12.31-.17l.32-.11.34-.07h0c.12,0,.23,0,.35,0h.75l.4.09.77.24.36.12Z"/>
      <polygon points="432.98 33.15 432.98 32.8 433.72 32.8 433.72 33.15 433.74 39.54 433.74 39.89 433 39.89 433 39.54 432.98 33.15 432.98 33.15"/>
      <path d="M446.81,33.19l.35.11-.23.67-.35-.11h0c-.25-.08-.5-.17-.73-.23l-.34-.07-.3-.05h-.28c-.09,0-.17,0-.26,0h-.25l-.22.08-.19.1h0c-.06.03-.11.08-.16.13-.05.06-.1.12-.14.18-.04.07-.07.15-.1.23-.03.09-.04.18-.05.27-.02.08-.02.16,0,.24,0,.07.03.13.06.19.03.07.08.13.13.19.06.08.13.15.21.22.13.1.27.19.42.26.27.14.68.3,1.05.46.16.06.31.12.5.21h0c.2.08.39.17.57.28.15.09.28.2.39.34h0c.09.12.16.25.21.39.05.15.08.3.1.46.01.13.01.25,0,.38h0c0,.12-.03.25-.06.37-.03.12-.07.23-.12.34-.05.11-.12.22-.21.31h0c-.09.1-.19.19-.3.27h0c-.12.08-.25.15-.38.21h0c-.15.07-.31.12-.47.16-.17.04-.34.07-.52.09-.2.01-.4.01-.6,0-.2,0-.39-.03-.59-.06h0c-.34-.07-.67-.17-1-.29h0l-.36-.12.26-.67.35.12h0c.3.11.6.19.91.26h.99l.4-.07c.12-.03.23-.07.34-.12h0c.08-.04.16-.08.24-.13h0c.06-.05.12-.1.18-.16h0l.11-.16c.03-.07.05-.13.07-.2,0-.08,0-.17,0-.25h0c0-.09,0-.18,0-.27,0-.1-.03-.2-.06-.29-.02-.07-.06-.14-.1-.2h0c-.06-.07-.13-.12-.2-.17-.15-.09-.31-.17-.47-.23h0l-.49-.2c-.38-.16-.79-.33-1.11-.49-.17-.04-.34-.1-.51-.17-.12-.1-.23-.21-.33-.33-.08-.1-.15-.21-.21-.32-.06-.12-.1-.25-.12-.38-.02-.14-.02-.27,0-.41,0-.14.03-.28.08-.41.04-.13.09-.25.16-.37.07-.12.15-.22.24-.32.08-.09.18-.17.28-.23h0c.09-.07.19-.12.3-.17l.32-.11.35-.07h0c.12-.01.23-.01.35,0h.74l.4.09c.26.07.52.16.77.24l-.02-.02Z"/>
      <path d="M421.68,33.33l-.09-.34.73-.17.09.34,1.39,5.22,1.83-4.19c.07-.19.29-.29.48-.21.1.04.17.11.21.21l1.84,4.22,1.51-5.29.1-.34.73.22-.1.34-1.79,6.3h0c-.03.11-.11.19-.22.23-.19.08-.4,0-.48-.19l-1.92-4.4-1.92,4.38c-.04.12-.14.2-.26.23-.2.05-.39-.07-.45-.26l-1.67-6.26v-.04Z"/>
      <path d="M442.98,46.9v-3.22c.01-.2.18-.36.38-.35h4v.67h-3.6v2.2h3.31v.7h-3.31v2.53h3.87v.71h-4.24c-.2,0-.37-.16-.38-.36h0v-2.88h-.03Z"/>
      <path d="M426.84,48.25h-.07l-.82,1.87-.14.33-.69-.27.14-.32,2.78-6.36c.09-.18.3-.26.49-.19.09.04.16.11.2.19h0l2.77,6.33.14.33-.69.27-.14-.33-.81-1.84h-3.16ZM427.08,47.55h2.62l-1.32-3-1.3,3Z"/>
      <path d="M440.1,46c-.03-.22-.09-.43-.17-.63-.07-.16-.15-.33-.24-.48-.09-.15-.17-.28-.26-.41h0c-.1-.14-.21-.27-.34-.38-.22-.22-.48-.41-.76-.55h0c-.25-.13-.53-.2-.82-.21h-2.6c-.2,0-.36.15-.37.35v6.14h0c.01.2.17.35.37.35h2.15c1.02-.02,1.97-.5,2.58-1.31.1-.12.18-.26.25-.4.07-.15.13-.3.17-.46.04-.18.07-.37.09-.56.02-.25.02-.51,0-.76,0-.23-.02-.46-.05-.69ZM439.36,47.35c-.01.16-.04.32-.08.47-.03.11-.06.22-.11.33-.05.09-.11.18-.17.26-.07.09-.15.17-.24.25l-.3.24c-.19.13-.39.25-.59.36l-.22.11c-.1.04-.21.07-.32.08h-2.1v-5.43h2.27c.16.01.32.06.47.13h0c.21.12.41.26.58.43.1.09.18.18.26.29.09.11.16.23.22.35.08.12.14.26.2.39.07.15.11.31.13.48.02.19.02.37,0,.56.02.24.02.49,0,.73v-.03Z"/>
      <rect class="st6" x="383.94" y="30.52" width="23.16" height="21.28"/>
      <path d="M26.5,33.54c.51.77.3,1.82-.47,2.33-.77.51-1.82.3-2.33-.47h0s-.06-.09-.08-.14c-.67-1.15-1.53-2.16-2.56-3-.54-.37-1.12-.67-1.74-.89-.79-.29-1.62-.51-2.45-.65-.78-.14-1.57-.23-2.36-.27h-2.25c-.67.03-1.34.09-2,.18-.59.08-1.18.21-1.76.37h-.08c-.61.2-1.2.45-1.76.76-.44.23-.84.52-1.2.86-.3.29-.54.63-.73,1-.17.37-.31.75-.39,1.15-.08.33-.13.66-.14,1,0,.59.09,1.18.3,1.73.05.15.13.29.23.41.07.09.15.17.25.22.19.12.38.23.59.31l.84.34c.27.1.61.2,1,.3.41.12.79.22,1.15.3l1.4.28c.45.08,1,.17,1.74.27s1.16.17,1.69.23l1.58.16,1.9.19c.55.07,1.12.16,1.71.27.55.1,1.1.23,1.65.37s1.08.3,1.6.49c.53.19,1.05.42,1.55.68.52.26,1.01.58,1.47.94.43.35.81.76,1.12,1.21.3.46.52.97.65,1.5.1.44.17.89.2,1.34v1.27c0,.46-.05.91-.13,1.36-.08.47-.22.92-.4,1.36-.21.47-.48.91-.79,1.31-.33.47-.71.91-1.13,1.31-.42.4-.88.76-1.37,1.08-.6.36-1.22.67-1.86.94-.68.28-1.38.51-2.09.69-.7.18-1.41.32-2.13.41-.73.1-1.46.16-2.19.17-.72,0-1.33,0-1.88-.06s-1-.11-1.62-.19l-1.49-.21c-.51-.09-1-.19-1.46-.31-.47-.12-.94-.27-1.4-.44-.45-.19-.89-.41-1.32-.65-.44-.24-.9-.52-1.35-.82s-.84-.58-1.24-.9c-.35-.29-.69-.6-1-.93-.28-.27-.53-.56-.77-.87-.35-.45-.67-.92-.94-1.42-.41-.83-.07-1.84.77-2.25.74-.36,1.64-.14,2.11.54.19.35.41.68.65,1,.16.21.33.4.52.58.23.24.48.46.74.67.28.22.62.47,1,.72s.75.48,1.12.68.67.35,1,.49c.33.13.66.23,1,.32.38.1.77.19,1.16.25l1.37.2c.43.06.88.11,1.46.16s1,.07,1.55.06c.6,0,1.2-.04,1.79-.12.59-.07,1.17-.18,1.74-.33.56-.14,1.11-.32,1.64-.54.47-.19.92-.42,1.35-.69.32-.2.62-.43.9-.69.25-.23.48-.49.68-.77.14-.21.27-.44.37-.67.09-.22.16-.45.2-.68.05-.27.08-.55.08-.83.02-.32.02-.63,0-.95-.01-.26-.05-.52-.11-.77-.04-.16-.1-.31-.19-.45-.13-.18-.28-.34-.45-.48-.28-.22-.58-.42-.89-.58-.36-.18-.74-.35-1.12-.49-.41-.14-.86-.28-1.32-.4s-.93-.22-1.42-.31-1-.16-1.51-.23l-1.8-.2-1.63-.16c-.63-.07-1.24-.15-1.81-.23s-1.18-.19-1.85-.31l-1.53-.3c-.54-.12-1-.23-1.35-.34s-.79-.24-1.18-.38-.75-.29-1-.42c-.4-.14-.79-.31-1.16-.51-.41-.27-.78-.61-1.09-1-.29-.39-.53-.82-.69-1.28-.18-.47-.31-.95-.39-1.44-.08-.49-.11-.99-.1-1.49.02-.56.09-1.12.22-1.66.14-.65.36-1.28.66-1.88.34-.72.81-1.38,1.38-1.94.58-.56,1.23-1.03,1.94-1.41.75-.41,1.53-.74,2.34-1h.08c.76-.24,1.53-.42,2.32-.54.78-.12,1.57-.2,2.36-.23h2.55c.93.05,1.86.15,2.78.31,1.02.18,2.03.46,3,.82.88.33,1.72.76,2.5,1.3,1.4,1.05,2.59,2.36,3.5,3.86l.09.12h-.09Z"/>
      <path d="M36.04,56c0,.93-.75,1.68-1.68,1.68s-1.68-.75-1.68-1.68v-27.33c0-.93.74-1.68,1.67-1.69.61,0,1.17.32,1.47.85l10.92,17.17,11.25-17c.51-.77,1.56-.98,2.33-.47.47.31.75.83.75,1.39h0v27c0,.93-.75,1.68-1.68,1.68s-1.68-.75-1.68-1.68v-21.42l-9.55,14.44c-.47.8-1.5,1.07-2.3.6-.23-.14-.43-.32-.57-.55l-9.25-14.55v21.56Z"/>
      <path d="M73.99,45.49h13.51l-6.88-12.85-6.63,12.85ZM91.77,46.35h0l4.36,8.14c.44.83.12,1.85-.71,2.29s-1.85.12-2.29-.71h0l-3.83-7.24h-17l-3.94,7.64c-.43.83-1.44,1.16-2.27.73-.83-.43-1.16-1.44-.73-2.27l13.74-26.66c.42-.82,1.43-1.15,2.25-.73,0,0,0,0,.01,0,.33.17.59.44.74.77l9.67,18v.03Z"/>
      <path d="M127.8,31.33c-.93,0-1.68-.75-1.68-1.68s.75-1.68,1.68-1.68h24.45c.93,0,1.68.75,1.68,1.68s-.75,1.68-1.68,1.68h-10.54v24.44c0,.93-.75,1.68-1.68,1.68s-1.68-.75-1.68-1.68v-24.44h-10.55ZM103.8,43.16h10c1-.09,2.07-.17,2.82-.28.36-.04.72-.11,1.07-.19h0c.29-.07.57-.16.84-.28.28-.12.55-.27.8-.43.25-.16.5-.35.72-.55.19-.17.37-.36.52-.57.15-.21.27-.43.38-.66.12-.27.22-.55.3-.83.09-.33.17-.66.22-1,0-.31.08-.61.1-.9.02-.29.02-.58,0-.87-.01-.26-.04-.52-.09-.77-.05-.25-.11-.53-.2-.84s-.19-.66-.3-1c-.1-.27-.21-.53-.34-.79l-.06-.1c-.14-.24-.29-.47-.46-.68h0c-.18-.22-.38-.42-.59-.61h0c-.15-.14-.32-.27-.5-.38-.19-.11-.39-.2-.59-.28-.66-.21-1.32-.38-2-.51h-12.6v12.52h-.04ZM117.3,46.16l7.2,8.11c.56.74.42,1.79-.32,2.35-.66.5-1.59.45-2.19-.13l-8.8-10h-9.34v9.51c-.07.93-.88,1.62-1.8,1.55-.83-.06-1.48-.72-1.55-1.55v-27c0-.93.75-1.68,1.68-1.68h14.49c.15,0,.3.03.45.07.86.16,1.7.37,2.53.65.41.15.81.34,1.19.57.36.22.69.47,1,.76h0c.36.31.69.64,1,1h0c.29.36.55.75.78,1.15l.06.14c.21.39.39.8.55,1.21.16.45.29.88.4,1.26s.19.77.26,1.14c.06.38.11.76.13,1.14.03.42.03.83,0,1.25-.02.42-.07.84-.14,1.25-.1.47-.23.93-.38,1.39-.13.44-.29.88-.48,1.3-.2.44-.44.85-.72,1.24-.3.39-.63.75-1,1.07-.73.66-1.57,1.2-2.47,1.6-.43.2-.87.37-1.33.49h0c-.36.09-.76.15-1.2.22v-.06Z"/>
      <path d="M260.89,28.08c0-.41.33-.74.74-.74.41,0,.74.33.75.74v27h19.19c.41,0,.74.34.74.75,0,.41-.33.74-.74.74h-19.91c-.41,0-.74-.33-.74-.74v-27.73l-.03-.02Z"/>
      <path d="M309.5,48.12h-19l-4.21,8.05c-.19.36-.64.51-1.01.32-.36-.19-.51-.64-.32-1.01l4.43-8.48h0l9.94-19c.19-.36.64-.5,1-.31,0,0,0,0,0,0,.14.07.24.17.31.31h0l14.4,27.42c.19.36.05.81-.31,1,0,0,0,0,0,0-.36.18-.8.04-1-.31l-4.21-8h-.03ZM291.25,46.63h17.47l-8.71-16.63-8.72,16.66-.04-.03Z"/>
      <path d="M350.4,41.3h19.1c.41,0,.74.33.74.74s-.33.74-.74.74h-19.1v12.22h19.76c.41,0,.75.34.75.75s-.34.75-.75.75h-20.5c-.41,0-.74-.34-.75-.75v-27.6c0-.41.34-.74.75-.74h20.47c.41,0,.74.34.75.75,0,.41-.34.74-.75.74h-19.73v12.4Z"/>
      <polygon class="st5" points="192.75 0 195.57 2.82 170.4 28.07 170.4 59.37 208.63 59.37 208.63 27.87 212.62 27.87 212.62 59.37 212.62 63.27 208.63 63.27 170.4 63.27 166.4 63.27 166.4 59.37 166.4 26.42 192.75 0 192.75 0"/>
      <path d="M342.08,50.22c.23-.35.69-.44,1.04-.21.35.23.44.69.21,1.04-.03.04-.06.08-.09.11-1.78,2.2-4.1,3.9-6.74,4.92-2.51,1.03-5.27,1.28-7.92.71-3.39-.81-6.42-2.7-8.63-5.39-2.16-2.62-3.35-5.91-3.35-9.3v-.44c.14-3.87,1.73-7.55,4.47-10.3,2.75-2.81,6.5-4.4,10.43-4.42h.44c1.97,0,3.93.38,5.76,1.11,2.02.89,3.77,2.31,5.06,4.11.28.3.27.78-.04,1.06-.3.28-.78.27-1.06-.04-.04-.04-.07-.08-.09-.12-1.13-1.59-2.67-2.85-4.45-3.64-1.66-.66-3.43-1-5.22-1h-.4c-3.54.02-6.93,1.46-9.4,4-2.46,2.48-3.89,5.8-4,9.29,0,.13,0,.27,0,.4,0,3.05,1.06,6,3,8.36,2.01,2.43,4.76,4.15,7.83,4.88,2.34.49,4.78.27,7-.64,2.4-.93,4.51-2.48,6.12-4.48h.03Z"/>
      <path d="M245.88,27.72c.35.06.7.12,1,.2.39.08.77.19,1.15.32.38.14.75.3,1.11.49.39.2.77.43,1.14.67.36.24.7.5,1,.77.36.29.69.6,1,.93.31.34.6.7.86,1.08.26.37.5.76.7,1.17.18.35.33.71.46,1.08h0c.12.36.22.73.29,1.1.07.31.11.62.13.94v2.01c-.03.39-.07.77-.14,1.15-.06.36-.13.72-.23,1.07h0c-.08.29-.17.58-.26.84-.08.23-.17.46-.27.69-.1.22-.21.42-.34.65s-.32.49-.52.76-.36.47-.55.69c-.21.23-.43.44-.66.64h-.05c-.2.18-.42.35-.64.5-.24.17-.49.33-.76.49-.27.16-.55.31-.84.44-.3.14-.61.26-.92.37-.3.11-.6.2-.91.27-.47.11-.94.18-1.42.2h-12.29v8.43c0,.41-.33.74-.74.75-.41,0-.74-.34-.75-.75v-9.07h0v-18.14c0-.41.34-.74.75-.74h12.7ZM246.1,45.86h0c.4-.01.79-.07,1.18-.15.22-.06.48-.13.76-.23s.55-.21.79-.32.49-.24.71-.37c.22-.13.43-.27.64-.42.19-.14.37-.27.54-.42h0c.19-.16.36-.33.53-.51.17-.19.33-.39.47-.58s.3-.43.43-.64c.1-.16.19-.33.26-.5.08-.18.16-.37.22-.56.07-.2.15-.45.23-.74h0c.08-.3.15-.61.2-.92.06-.33.09-.67.12-1s0-.7,0-1c.02-.27.02-.55,0-.82-.02-.25-.05-.51-.1-.76-.06-.3-.14-.61-.24-.9h0c-.09-.35-.2-.69-.34-1.02-.17-.35-.37-.68-.59-1-.22-.33-.47-.64-.74-.93-.26-.28-.53-.54-.82-.79-.29-.24-.59-.46-.9-.67-.32-.21-.66-.41-1-.59-.3-.16-.61-.29-.93-.41-.33-.11-.66-.2-1-.27-.33-.07-.64-.12-.95-.17h-11.68v16.66l12.21.03Z"/>
      <polygon class="st2" points="410.67 27.16 452.49 27.16 452.49 55.15 410.67 55.15 410.67 27.16 410.67 27.16"/>
      <path class="st4" d="M380.37,27.16h30.3v28h-30.3v-28ZM384.32,44.62v-6.54h7.58v-7.17h6.91v7.17h7.58v6.54h-7.58v7.18h-6.91v-7.18h-7.58Z"/>
      <path d="M419.38,33.19l.35.11-.23.7-.36-.11h0c-.25-.08-.5-.17-.73-.23l-.34-.07-.31-.05h-.26c-.08,0-.17,0-.25,0h0c-.08,0-.17,0-.25,0l-.22.08c-.07.03-.13.06-.19.1h0c-.06.03-.11.08-.16.13-.05.06-.1.12-.14.18-.04.07-.08.15-.1.23-.03.09-.05.18-.05.27,0,.08,0,.16,0,.24,0,.07.03.13.06.19.04.07.08.13.13.19.06.08.13.15.21.22.13.1.28.19.43.26.27.14.68.3,1.05.46l.5.21h0c.2.08.39.17.58.28.16.12.29.26.4.42h0c.09.12.15.25.2.39.06.15.09.3.1.46.01.13.01.25,0,.38h0c0,.12-.03.25-.06.37-.03.12-.07.23-.12.34-.06.11-.13.21-.21.31h0c-.09.1-.2.19-.31.27h0c-.11.09-.24.16-.37.21h0c-.15.07-.31.12-.47.16-.17.04-.34.07-.52.09-.2.01-.4.01-.6,0-.2,0-.39-.03-.59-.06h0c-.34-.07-.67-.17-1-.29h0l-.35-.12.25-.67.35.12h0c.3.11.6.19.91.26h.99l.4-.07c.12-.03.23-.07.34-.12h0l.25-.13h0l.17-.16h0s.08-.1.11-.16c.03-.06.06-.13.07-.2.01-.08.01-.17,0-.25h0c0-.09,0-.18,0-.27,0-.1-.03-.2-.06-.29-.02-.07-.06-.14-.11-.2h0c-.05-.07-.12-.13-.19-.17-.15-.09-.31-.16-.47-.23h0l-.49-.2c-.37-.16-.78-.33-1.1-.49-.2-.1-.38-.21-.56-.34-.12-.1-.22-.21-.32-.33-.08-.1-.15-.21-.21-.32-.06-.12-.1-.25-.12-.38-.05-.27-.03-.56.06-.82.04-.13.1-.25.17-.37.07-.12.15-.22.24-.32.08-.09.18-.17.28-.23h0c.11-.07.22-.13.34-.17l.32-.11.34-.07h0c.12,0,.23,0,.35,0h.75l.4.09.77.24-.05.04Z"/>
      <path d="M416.27,49.91v.35h-.75v-.35l.49-6.22c.03-.2.2-.34.4-.33.13,0,.25.08.31.2l2.56,4.5,2.48-4.56c.09-.18.32-.25.5-.16,0,0,0,0,0,0,.11.06.18.17.2.29h0l.53,6.25v.36l-.74.05v-.35l-.43-5-2.19,4c-.03.07-.1.14-.17.17-.18.09-.4.03-.5-.14l-2.3-4-.4,5v-.06Z"/>
      <polygon class="st3" points="452.49 55.15 380.37 55.15 380.37 27.16 452.49 27.16 452.49 55.15 452.49 55.15"/>
      <line class="st1" x1="160.57" y1="62.56" y2="62.56"/>
      <line class="st1" x1="370.9" y1="62.56" x2="219.4" y2="62.56"/>
    </g>
  </g>
</svg>