<?xml version="1.0" encoding="utf-8"?>
<svg version="1.1" xmlns="http://www.w3.org/2000/svg" xmlns:xlink="http://www.w3.org/1999/xlink" x="0px"
     y="0px"
     viewBox="0 0 1595 377" style="enable-background:new 0 0 1595 377;" xml:space="preserve">
<style type="text/css">
  .st0{fill:#009EE3;}
  .st1{fill:#27348B;}
</style>
  <g>
      <g>
        <path class="st0" d="M1517.96,313.18c1.48,1.56,2.26,3.77,2.31,6.63v1.03h-17.88c0.45-3.22,1.47-5.69,3.05-7.41
          c1.58-1.73,3.65-2.6,6.2-2.6C1514.37,310.83,1516.47,311.61,1517.96,313.18 M1524.05,348.07c3.3-1.52,5.9-3.65,7.83-6.38
          l-6.32-7.08c-2.79,3.59-6.66,5.38-11.6,5.38c-3.21,0-5.85-0.95-7.94-2.84c-2.09-1.9-3.34-4.42-3.75-7.56h30.64v-5.26
          c0-7.61-1.89-13.5-5.67-17.65c-3.78-4.15-8.96-6.23-15.54-6.23c-4.39,0-8.3,1.03-11.72,3.1c-3.42,2.06-6.07,4.99-7.93,8.8
          c-1.88,3.82-2.81,8.13-2.81,12.97v1.25c0,7.2,2.21,12.97,6.65,17.3c4.44,4.33,10.17,6.49,17.23,6.49
          C1517.11,350.37,1520.76,349.6,1524.05,348.07 M1456.59,336.75c-1.51-2.17-2.27-5.73-2.27-10.69v-1.33
          c0-4.9,0.77-8.44,2.29-10.63c1.53-2.18,3.79-3.27,6.79-3.27c2.43,0,4.39,0.78,5.87,2.35c1.48,1.57,2.25,3.6,2.3,6.1h12.06
          c-0.06-5.69-1.9-10.26-5.54-13.68c-3.63-3.42-8.46-5.14-14.48-5.14c-6.88,0-12.29,2.21-16.23,6.63
          c-3.94,4.42-5.91,10.33-5.91,17.74v0.85c0,7.71,1.99,13.75,5.96,18.12c3.97,4.37,9.4,6.56,16.28,6.56
          c3.68,0,7.03-0.75,10.07-2.25c3.04-1.49,5.44-3.6,7.19-6.31c1.75-2.71,2.63-5.7,2.67-8.96h-12.06c-0.05,2.17-0.83,3.9-2.3,5.2
          c-1.48,1.31-3.42,1.96-5.78,1.96C1460.4,340,1458.1,338.92,1456.59,336.75 M1392.2,301.36v48.12h12.85v-33.93
          c1.8-3.09,4.52-4.63,8.13-4.63c2.76,0,4.74,0.61,5.92,1.84c1.18,1.24,1.78,3.22,1.78,5.94v30.78h12.85v-31.09
          c-0.05-5.96-1.33-10.44-3.83-13.43c-2.49-3-6.28-4.5-11.39-4.5c-5.77,0-10.39,2.15-13.83,6.45l-0.4-5.56H1392.2z
           M1370.23,313.18c1.48,1.56,2.25,3.77,2.3,6.63v1.03h-17.87c0.44-3.22,1.46-5.69,3.04-7.41c1.58-1.73,3.65-2.6,6.2-2.6
          C1366.64,310.83,1368.74,311.61,1370.23,313.18 M1376.31,348.07c3.3-1.52,5.9-3.65,7.83-6.38l-6.31-7.08
          c-2.8,3.59-6.66,5.38-11.61,5.38c-3.2,0-5.85-0.95-7.94-2.84c-2.09-1.9-3.34-4.42-3.75-7.56h30.64v-5.26
          c0-7.61-1.89-13.5-5.67-17.65c-3.78-4.15-8.96-6.23-15.55-6.23c-4.39,0-8.3,1.03-11.72,3.1c-3.42,2.06-6.07,4.99-7.93,8.8
          c-1.87,3.82-2.81,8.13-2.81,12.97v1.25c0,7.2,2.22,12.97,6.65,17.3c4.44,4.33,10.18,6.49,17.23,6.49
          C1369.38,350.37,1373.02,349.6,1376.31,348.07 M1338.07,301.05c-1.24-0.38-2.58-0.58-4-0.58c-4.57,0-8.14,2.21-10.72,6.63
          l-0.36-5.74h-12.14v48.12h12.85v-31.49c1.51-3.29,4.7-4.94,9.56-4.94c1.33,0,2.88,0.12,4.63,0.36L1338.07,301.05z
           M1288.62,313.18c1.48,1.56,2.25,3.77,2.3,6.63v1.03h-17.87c0.44-3.22,1.46-5.69,3.04-7.41c1.58-1.73,3.65-2.6,6.2-2.6
          C1285.03,310.83,1287.13,311.61,1288.62,313.18 M1294.71,348.07c3.29-1.52,5.89-3.65,7.82-6.38l-6.31-7.08
          c-2.79,3.59-6.66,5.38-11.61,5.38c-3.2,0-5.85-0.95-7.93-2.84c-2.09-1.9-3.35-4.42-3.76-7.56h30.64v-5.26
          c0-7.61-1.89-13.5-5.67-17.65c-3.78-4.15-8.96-6.23-15.55-6.23c-4.39,0-8.3,1.03-11.72,3.1c-3.42,2.06-6.07,4.99-7.93,8.8
          c-1.87,3.82-2.81,8.13-2.81,12.97v1.25c0,7.2,2.22,12.97,6.65,17.3c4.44,4.33,10.18,6.49,17.23,6.49
          C1287.77,350.37,1291.41,349.6,1294.71,348.07 M1246.46,349.47v-38.69h9.55v-9.43h-9.55v-3.87c0-4.54,2.41-6.8,7.25-6.8
          c1.54,0,2.84,0.14,3.91,0.4l0.14-9.96c-2.58-0.59-4.76-0.88-6.54-0.88c-5.57,0-9.91,1.48-13.01,4.46
          c-3.1,2.99-4.65,7.17-4.65,12.57v4.09h-7.16v9.43h7.16v38.69H1246.46z M1213.81,349.47v-38.69h9.55v-9.43h-9.55v-3.87
          c0-4.54,2.41-6.8,7.25-6.8c1.54,0,2.84,0.14,3.91,0.4l0.14-9.96c-2.58-0.59-4.76-0.88-6.54-0.88c-5.57,0-9.91,1.48-13.01,4.46
          c-3.1,2.99-4.65,7.17-4.65,12.57v4.09h-7.16v9.43h7.16v38.69H1213.81z M1175.14,293.71c1.32,1.25,3.06,1.87,5.23,1.87
          c2.16,0,3.91-0.62,5.23-1.87c1.31-1.25,1.98-2.84,1.98-4.8c0-1.93-0.66-3.52-1.96-4.76c-1.3-1.24-3.05-1.87-5.25-1.87
          c-2.22,0-3.98,0.63-5.27,1.87c-1.28,1.25-1.93,2.83-1.93,4.76C1173.17,290.86,1173.82,292.46,1175.14,293.71 M1186.82,301.36
          h-12.9v48.12h12.9V301.36z M1134.83,295.53c5.25,0,9.24,1.7,11.96,5.09c2.73,3.4,4.09,8.39,4.09,14.97v3.42
          c-0.05,6.35-1.47,11.23-4.22,14.64c-2.76,3.41-6.75,5.11-11.97,5.11h-6.45v-43.23H1134.83z M1134.96,349.47
          c5.67-0.03,10.75-1.33,15.26-3.91c4.51-2.59,8-6.21,10.47-10.9c2.48-4.68,3.72-10.04,3.72-16.05v-2.99
          c0-6.01-1.27-11.39-3.78-16.12c-2.52-4.73-6.03-8.37-10.52-10.94c-4.49-2.56-9.58-3.84-15.27-3.84h-19.93v64.75H1134.96z
           M1059.11,348.47c-0.66,1.94-1.78,4.03-3.32,6.28c-1.55,2.25-3.2,4.33-4.96,6.24c-1.76,1.91-3.52,3.51-5.28,4.78
          c-1.76,1.28-3.22,1.91-4.37,1.91c-0.85,0-1.47-0.35-1.87-1.05c-0.39-0.7-0.77-1.48-1.14-2.37c-0.36-0.88-0.83-1.67-1.41-2.37
          c-0.57-0.7-1.47-1.05-2.69-1.05c-1.39,0-2.51,0.47-3.37,1.41c-0.85,0.94-1.28,2.17-1.28,3.69c0,2,0.75,3.71,2.23,5.1
          c1.49,1.39,3.51,2.09,6.06,2.09c3.41,0,7.06-1.44,10.98-4.33c3.92-2.89,8.19-7.33,12.8-13.34c3.04-3.89,5.98-8.15,8.83-12.8
          c2.86-4.65,5.37-9.2,7.56-13.66c2.19-4.46,3.95-8.63,5.28-12.52c1.34-3.88,2-7.07,2-9.56c0-1.76-0.36-3.31-1.09-4.65
          c-0.73-1.33-1.88-2-3.46-2c-1.21,0-2.37,0.52-3.46,1.55c-1.09,1.04-1.64,2.64-1.64,4.83c0,0.55,0.04,1.27,0.09,2.14
          c0.06,0.88,0.14,1.81,0.23,2.78c0.09,0.97,0.17,1.93,0.23,2.87c0.06,0.95,0.09,1.72,0.09,2.32c0,1.82-0.3,3.78-0.91,5.87
          c-0.6,2.09-1.39,4.16-2.37,6.19c-0.97,2.04-2.05,3.98-3.23,5.83c-1.18,1.86-2.35,3.51-3.51,4.96h-0.36l-3.1-14.66
          c-0.85-4.13-1.71-7.79-2.6-10.98c-0.87-3.19-1.69-5.75-2.41-7.7c-0.85-2.3-1.68-3.88-2.5-4.74c-0.82-0.85-1.8-1.28-2.96-1.28
          c-1.33,0-2.67,0.47-4.01,1.41c-1.33,0.95-2.6,2.28-3.78,4.01c-1.18,1.73-2.28,3.78-3.28,6.15c-1,2.37-1.8,4.95-2.41,7.74
          l3.37,0.91c0.97-3.76,1.93-6.51,2.87-8.24c0.95-1.73,1.99-2.6,3.14-2.6c1.09,0,2.14,0.96,3.14,2.87c1,1.91,1.99,5.36,2.96,10.34
          L1059.11,348.47z M1002.1,338.27c0-2.24,0.31-4.61,0.91-7.1c0.61-2.49,1.45-4.96,2.5-7.42c1.07-2.46,2.28-4.79,3.64-7.01
          c1.37-2.21,2.8-4.19,4.28-5.92c1.49-1.73,3.01-3.1,4.55-4.1s3-1.5,4.33-1.5c1.4,0,2.59,0.7,3.55,2.09
          c0.97,1.4,1.46,3.16,1.46,5.28c0,2.25-0.32,4.64-0.96,7.15c-0.64,2.52-1.47,5.01-2.5,7.47c-1.03,2.46-2.24,4.82-3.64,7.06
          c-1.39,2.25-2.85,4.23-4.37,5.92c-1.51,1.7-3.06,3.05-4.65,4.05c-1.58,1-3.06,1.5-4.46,1.5
          C1003.65,345.74,1002.1,343.25,1002.1,338.27 M1021.04,273.97l-17.49,0.82l-0.82,2.73c4.68,0,7.01,1.07,7.01,3.19
          c0,0.55-0.15,1.38-0.46,2.5c-0.3,1.13-0.6,2.23-0.91,3.32l-11.02,35.52c-1.28,4.01-2.24,7.46-2.91,10.34
          c-0.66,2.89-1,5.12-1,6.69c0,3.34,1.11,6.06,3.32,8.15c2.22,2.09,5.05,3.14,8.52,3.14c2.43,0,4.91-0.52,7.42-1.55
          c2.52-1.03,4.92-2.44,7.2-4.24c2.28-1.79,4.42-3.88,6.42-6.28c2-2.4,3.75-4.96,5.24-7.7c1.49-2.73,2.66-5.58,3.51-8.56
          c0.86-2.97,1.28-5.88,1.28-8.74c0-4.01-1-7.16-3.01-9.47c-2-2.3-4.85-3.46-8.56-3.46c-2.97,0-5.78,0.77-8.42,2.32
          c-2.64,1.55-4.84,3.73-6.6,6.51l-0.27-0.18L1021.04,273.97z M932.81,312.12c2.26-3.11,5.4-4.67,9.44-4.67
          c5.09,0,8.87,2.27,11.34,6.8v22.11c-2.4,4.68-6.21,7.02-11.43,7.02c-3.97,0-7.09-1.54-9.34-4.63
          c-2.25-3.08-3.38-7.35-3.38-12.81C929.43,319.85,930.56,315.23,932.81,312.12 M921.21,325.64c0,7.35,1.76,13.32,5.27,17.88
          c3.51,4.56,8.05,6.85,13.63,6.85c5.87,0,10.46-2.01,13.74-6.05l0.4,5.16h7.56v-68.31h-8.22v25.08
          c-3.3-3.85-7.76-5.78-13.39-5.78c-5.67,0-10.25,2.25-13.74,6.74c-3.5,4.49-5.25,10.43-5.25,17.82V325.64z M902.08,310.67
          c2.02,2.3,3.14,5.54,3.38,9.72v0.62h-24.1c0.54-4.35,1.93-7.74,4.18-10.16c2.25-2.41,5.04-3.62,8.36-3.62
          C897.35,307.23,900.07,308.38,902.08,310.67 M913.07,341.07l-5.02-3.91c-1.51,1.96-3.28,3.52-5.29,4.71
          c-2.02,1.18-4.48,1.79-7.39,1.79c-4.09,0-7.46-1.47-10.12-4.38c-2.65-2.92-4.03-6.76-4.15-11.5h32.6v-3.42
          c0-7.68-1.74-13.57-5.21-17.7c-3.46-4.12-8.32-6.18-14.58-6.18c-3.83,0-7.38,1.07-10.66,3.18c-3.27,2.12-5.82,5.06-7.64,8.81
          c-1.83,3.75-2.74,8.02-2.74,12.79v1.51c0,7.18,2.05,12.91,6.14,17.19c4.09,4.29,9.4,6.43,15.92,6.43
          C902.99,350.37,909.04,347.27,913.07,341.07 M868.25,301.09c-0.84-0.42-2.05-0.63-3.65-0.63c-4.95,0-8.77,2.15-11.48,6.45
          l-0.13-5.56h-8.01v48.12h8.22v-34.16c1.93-4.59,5.59-6.89,10.98-6.89c1.46,0,2.81,0.11,4.05,0.32V301.09z M823.85,310.67
          c2.02,2.3,3.15,5.54,3.39,9.72v0.62h-24.11c0.54-4.35,1.93-7.74,4.18-10.16c2.25-2.41,5.04-3.62,8.36-3.62
          C819.12,307.23,821.84,308.38,823.85,310.67 M834.85,341.07l-5.03-3.91c-1.51,1.96-3.28,3.52-5.29,4.71
          c-2.02,1.18-4.48,1.79-7.39,1.79c-4.09,0-7.46-1.47-10.12-4.38c-2.65-2.92-4.03-6.76-4.15-11.5h32.6v-3.42
          c0-7.68-1.74-13.57-5.2-17.7c-3.47-4.12-8.33-6.18-14.59-6.18c-3.83,0-7.38,1.07-10.65,3.18c-3.28,2.12-5.83,5.06-7.65,8.81
          c-1.82,3.75-2.74,8.02-2.74,12.79v1.51c0,7.18,2.05,12.91,6.14,17.19c4.1,4.29,9.4,6.43,15.92,6.43
          C824.77,350.37,830.81,347.27,834.85,341.07 M759.46,301.36h-6.62l-11.21,36.02l-9.47-36.02h-8.18l13.96,48.12h6.67l11.39-36.47
          l11.7,36.47h6.67l14.01-48.12h-8.22l-9.25,36.78L759.46,301.36z M686.17,312.08c2.5-3.23,5.77-4.85,9.83-4.85
          c4.15,0,7.48,1.63,9.99,4.91c2.5,3.28,3.75,7.55,3.75,12.83c0,5.9-1.23,10.48-3.69,13.76c-2.46,3.28-5.78,4.92-9.96,4.92
          c-4.15,0-7.46-1.62-9.94-4.85c-2.48-3.22-3.72-7.51-3.72-12.85C682.43,319.93,683.68,315.31,686.17,312.08 M674.16,325.55
          c0,7.48,2.02,13.48,6.07,18.02c4.05,4.54,9.34,6.8,15.86,6.8c4.33,0,8.16-1.04,11.49-3.11c3.34-2.08,5.9-4.97,7.7-8.7
          c1.79-3.72,2.7-7.91,2.7-12.61v-0.57c0-7.53-2.03-13.57-6.08-18.11c-4.04-4.54-9.34-6.8-15.9-6.8c-4.24,0-8.01,1.03-11.31,3.07
          c-3.31,2.05-5.88,4.95-7.74,8.72c-1.85,3.77-2.78,8.01-2.78,12.72V325.55z M629.29,291.7h15.83c4.24,0.09,7.58,1.29,10.01,3.62
          c2.43,2.31,3.64,5.4,3.64,9.26c0,4.07-1.21,7.18-3.64,9.34c-2.43,2.15-5.93,3.22-10.49,3.22h-15.35V291.7z M644.54,324.13
          c7.32,0,12.95-1.69,16.88-5.09c3.93-3.4,5.89-8.23,5.89-14.52c0-5.97-2.01-10.75-6.03-14.36c-4.02-3.63-9.56-5.43-16.65-5.43
          h-23.88v64.75h8.53v-25.35H644.54z"/>
      </g>
    </g>
  <g>
      <g>
        <g>
          <path class="st0" d="M324.63,119.41c-0.34-1.19-0.75-2.38-1.22-3.56c-0.94-2.35-2.15-4.66-3.6-6.93
            c-1.09-1.7-2.31-3.37-3.66-5.02c-1.81-2.19-3.85-4.34-6.11-6.42c-1.7-1.57-3.52-3.1-5.46-4.6c-1.94-1.5-4-2.96-6.17-4.39
            c-0.43-0.28-0.87-0.57-1.31-0.85c-1.61-1.03-3.76-0.32-4.46,1.46c-3.97,10.14-9.34,22.96-17.07,34.35
            c-1.01,1.49-1.54,3.25-1.54,5.05c0,0.01,0,0.02,0,0.03c0,20.28-18.5,38.19-46.76,48.98c-4.75,1.81-9.77,3.43-15.02,4.81
            c-0.01,0-0.01,0-0.02,0c-7.34,1.94-15.14,3.44-23.29,4.44c-0.01,0-0.01,0-0.02,0c-4.58,0.56-9.27,0.97-14.05,1.21
            c-3.31,0.17-6.66,0.25-10.05,0.25c-28.4,0-54.26-5.93-73.68-15.64c-1.66-0.83-3.61,0.41-3.57,2.26
            c0.05,2.38,0.25,4.78,0.55,7.05c0.79,6.04,5.36,10.89,11.34,12.07c16.82,3.32,35.17,5.4,54.44,5.98
            c3.61,0.11,7.25,0.17,10.92,0.17c1.51,0,3.01-0.01,4.5-0.03c0,0,0.01,0,0.01,0c8.39-0.1,16.63-0.49,24.65-1.14c0,0,0,0,0.01,0
            c4.24-0.34,8.42-0.77,12.54-1.25c68.75-8.17,119.38-36.04,119.38-69.17C325.93,125.44,325.49,122.39,324.63,119.41z"/>
        </g>
        <g>
          <path class="st0" d="M53.58,136.27c1.36-2.34,2.05-5,2.05-7.71c0-0.01,0-0.03,0-0.04c0-1.03,0.05-2.05,0.14-3.07
            c0.09-1.02,0.24-2.03,0.42-3.03c0.47-2.51,1.22-4.97,2.23-7.38c0.41-0.96,0.86-1.92,1.35-2.86c0.25-0.47,0.5-0.94,0.77-1.41
            c0.53-0.93,1.1-1.86,1.72-2.77c0.31-0.46,0.62-0.91,0.95-1.36c1.96-2.71,4.26-5.33,6.89-7.83c0.44-0.42,0.89-0.83,1.34-1.24
            c3.19-2.87,6.82-5.59,10.82-8.11c0.57-0.36,1.15-0.72,1.74-1.07c1.18-0.71,2.38-1.4,3.62-2.07c4.55-2.49,9.49-4.75,14.78-6.77
            c4.75-1.81,9.77-3.43,15.02-4.81c0.01,0,0.01,0,0.02,0c0,0,0,0,0,0c7.34-1.94,15.14-3.44,23.29-4.44c0,0,0,0,0,0
            c0.01,0,0.01,0,0.02,0c4.58-0.56,9.27-0.97,14.05-1.21c3.31-0.17,6.66-0.25,10.05-0.25c27.56,0,52.74,5.58,71.96,14.79
            c1.76,0.84,3.8-0.42,3.81-2.37c0.03-3.86-0.29-8.22-1.41-12.87c-0.53-2.2-2.27-3.9-4.48-4.38c-0.01,0-0.02-0.01-0.04-0.01
            c-18.03-3.86-37.92-6.27-58.92-6.89c-3.61-0.11-7.25-0.17-10.92-0.17c-1.51,0-3.01,0.01-4.5,0.03c0,0-0.01,0-0.01,0
            c-8.39,0.1-16.63,0.49-24.65,1.14c0,0,0,0-0.01,0c-4.24,0.34-8.42,0.77-12.54,1.25c-9.77,1.16-19.18,2.72-28.13,4.63
            c-2.35,0.5-4.66,1.03-6.95,1.58c-3.42,0.83-6.77,1.71-10.04,2.64c-2.18,0.62-4.32,1.26-6.43,1.93
            c-5.26,1.66-10.29,3.46-15.06,5.39c-1.91,0.77-3.77,1.56-5.59,2.37c-2.73,1.21-5.37,2.47-7.9,3.77
            c-1.69,0.87-3.33,1.75-4.92,2.65c-0.8,0.45-1.58,0.91-2.36,1.37c-1.55,0.92-3.04,1.85-4.49,2.81
            c-2.17,1.43-4.23,2.89-6.17,4.39c-1.94,1.5-3.76,3.03-5.46,4.6c-2.26,2.09-4.3,4.23-6.11,6.42c-1.36,1.64-2.58,3.32-3.66,5.02
            c-1.45,2.27-2.65,4.58-3.6,6.93c-0.47,1.18-0.88,2.36-1.22,3.56c-0.85,2.99-1.29,6.03-1.29,9.12
            c0,15.94,11.72,30.66,31.54,42.56c1.17,0.7,2.69,0.17,3.16-1.11C40.69,163.89,46.93,147.74,53.58,136.27z"/>
        </g>
        <g>
          <path class="st0" d="M184.96,45.55c0.24-0.08,0.48-0.17,0.72-0.25c1.18-0.4,2.35-0.76,3.52-1.11c0.33-0.1,0.66-0.19,0.99-0.28
            c0.95-0.27,1.89-0.53,2.83-0.77c0.28-0.07,0.56-0.15,0.84-0.22c1.15-0.28,2.29-0.54,3.42-0.77c0.29-0.06,0.57-0.11,0.86-0.17
            c0.92-0.18,1.84-0.35,2.75-0.49c0.29-0.05,0.58-0.1,0.87-0.14c1.12-0.17,2.22-0.32,3.32-0.43c0.22-0.02,0.44-0.04,0.66-0.06
            c0.92-0.09,1.83-0.16,2.74-0.22c0.29-0.02,0.57-0.04,0.86-0.05c1.04-0.05,2.07-0.08,3.08-0.08c0.04,0,0.08,0,0.12,0
            c0.1,0,0.2,0,0.31,0.01c0.98,0.01,1.95,0.04,2.91,0.1c0.21,0.01,0.41,0.02,0.62,0.03c1.01,0.07,2.01,0.16,2.99,0.28
            c0.18,0.02,0.36,0.05,0.54,0.07c0.92,0.12,1.82,0.27,2.71,0.44c0.11,0.02,0.23,0.04,0.34,0.06c0.95,0.19,1.89,0.41,2.81,0.66
            c0.19,0.05,0.38,0.1,0.57,0.16c0.93,0.26,1.84,0.54,2.73,0.86c0.03,0.01,0.06,0.02,0.09,0.04c0.86,0.31,1.7,0.66,2.53,1.03
            c0.17,0.08,0.34,0.15,0.51,0.23c0.82,0.38,1.63,0.79,2.42,1.23c0.13,0.07,0.26,0.15,0.4,0.23c0.72,0.41,1.42,0.85,2.1,1.31
            c0.11,0.08,0.23,0.15,0.34,0.23c0.73,0.51,1.44,1.05,2.13,1.61c0.15,0.12,0.3,0.25,0.45,0.38c0.7,0.59,1.38,1.2,2.03,1.85
            c2.46,2.46,4.46,5.27,6.06,8.35c1.37,2.62,2.44,5.45,3.21,8.46c1.27,4.98,1.75,10.44,1.45,16.27
            c-0.13,2.45-0.39,4.96-0.79,7.53c-0.03,0.18-0.07,0.38-0.1,0.56v0c-0.39,2.39-0.88,4.82-1.49,7.29
            c-0.05,0.21-0.12,0.43-0.17,0.64c-3.7,14.46-11.21,30.15-22.09,45.49c-2.01,2.83-4.13,5.65-6.36,8.44
            c-1.12,1.4-2.26,2.79-3.43,4.17c-3.51,4.15-7.27,8.25-11.27,12.25c0,0-0.01,0.01-0.01,0.01c-0.01,0.01-0.02,0.02-0.03,0.03
            c-0.74,0.74-0.04,1.98,0.98,1.73c3.16-0.8,7.18-1.87,11.35-3.08c4.97-1.43,9.42-4.25,12.83-8.15c0.02-0.02,0.03-0.04,0.05-0.06
            c0.88-1.01,1.75-2.02,2.61-3.02c5.16-6.06,10-12.15,14.5-18.24c1.5-2.03,2.96-4.06,4.38-6.09c3.83-5.46,7.38-10.9,10.63-16.3
            c1.52-2.51,2.98-5.01,4.36-7.5c0,0,0,0,0,0c1.71-3.07,3.33-6.12,4.84-9.14c1.95-3.9,3.73-7.74,5.34-11.53
            c0.8-1.89,1.56-3.77,2.28-5.63c0.36-0.93,0.7-1.86,1.04-2.78c0.16-0.43,0.3-0.86,0.45-1.28c0.5-1.41,0.98-2.81,1.42-4.19
            c0.31-0.95,0.6-1.89,0.88-2.83c0.52-1.74,1-3.46,1.43-5.16c0.67-2.61,1.23-5.18,1.68-7.69c0.3-1.67,0.56-3.32,0.77-4.94
            c0.21-1.62,0.37-3.22,0.48-4.78c0.11-1.57,0.17-3.1,0.19-4.61c0.01-1.51-0.02-2.99-0.11-4.43c-0.04-0.72-0.1-1.44-0.17-2.15
            c-0.14-1.41-0.32-2.8-0.56-4.14c-1.43-8.08-4.69-14.93-9.93-20.18c-0.45-0.45-0.91-0.88-1.38-1.3
            c-0.16-0.14-0.33-0.27-0.49-0.41c-0.32-0.27-0.63-0.54-0.96-0.8c-0.2-0.16-0.4-0.3-0.61-0.45c-0.3-0.23-0.6-0.46-0.91-0.67
            c-0.22-0.15-0.44-0.3-0.67-0.44c-0.3-0.2-0.6-0.41-0.91-0.6c-0.24-0.15-0.48-0.28-0.72-0.42c-0.31-0.18-0.61-0.36-0.93-0.53
            c-0.25-0.14-0.51-0.27-0.76-0.4c-0.31-0.16-0.63-0.32-0.94-0.48c-0.26-0.13-0.53-0.25-0.8-0.37c-0.32-0.14-0.64-0.29-0.97-0.43
            c-0.28-0.11-0.56-0.22-0.84-0.33c-0.33-0.13-0.66-0.26-0.99-0.38c-0.29-0.1-0.58-0.2-0.87-0.3c-0.34-0.11-0.68-0.22-1.02-0.33
            c-0.3-0.09-0.6-0.18-0.9-0.26c-0.35-0.1-0.7-0.19-1.05-0.28c-0.31-0.08-0.62-0.15-0.93-0.23c-0.36-0.08-0.72-0.16-1.08-0.24
            c-0.31-0.07-0.63-0.13-0.95-0.19c-0.37-0.07-0.74-0.13-1.11-0.19c-0.32-0.05-0.65-0.1-0.98-0.15c-0.38-0.05-0.76-0.1-1.14-0.15
            c-0.33-0.04-0.66-0.08-1-0.12c-0.39-0.04-0.78-0.07-1.17-0.11c-0.34-0.03-0.68-0.06-1.02-0.08c-0.4-0.03-0.8-0.05-1.2-0.06
            c-0.34-0.02-0.69-0.03-1.04-0.04c-0.41-0.01-0.83-0.02-1.24-0.02c-0.33,0-0.65-0.01-0.98-0.01c-0.97,0-1.96,0.03-2.96,0.07
            c-0.21,0.01-0.42,0.02-0.63,0.04c-0.85,0.04-1.7,0.1-2.57,0.18c-0.24,0.02-0.49,0.04-0.73,0.06c-1.03,0.1-2.07,0.21-3.12,0.35
            c-0.2,0.03-0.39,0.06-0.59,0.08c-0.91,0.12-1.82,0.26-2.74,0.42c-0.27,0.04-0.53,0.09-0.8,0.13c-1.08,0.19-2.17,0.4-3.28,0.63
            c-0.17,0.04-0.34,0.08-0.51,0.11c-0.97,0.21-1.95,0.43-2.93,0.67c-0.29,0.07-0.57,0.14-0.86,0.21
            c-1.13,0.28-2.27,0.58-3.42,0.9c-0.13,0.04-0.26,0.07-0.38,0.11c-1.05,0.29-2.1,0.61-3.16,0.94c-0.3,0.09-0.61,0.19-0.91,0.28
            c-1.18,0.37-2.36,0.76-3.55,1.17c-0.06,0.02-0.12,0.04-0.18,0.06c-1.14,0.39-2.3,0.81-3.45,1.24
            c-0.31,0.12-0.63,0.23-0.95,0.35c-1.18,0.45-2.37,0.91-3.57,1.39c-0.04,0.01-0.07,0.03-0.11,0.04
            c-1.23,0.5-2.47,1.02-3.71,1.55c-0.32,0.14-0.65,0.28-0.97,0.42c-1.14,0.5-2.28,1.01-3.44,1.54c-0.12,0.05-0.24,0.11-0.36,0.16
            c-1.25,0.58-2.51,1.18-3.78,1.8c-0.32,0.16-0.65,0.32-0.97,0.48c-1.12,0.55-2.24,1.11-3.36,1.69
            c-0.18,0.09-0.36,0.18-0.55,0.28c-1.27,0.66-2.55,1.34-3.83,2.03c-0.32,0.18-0.65,0.35-0.97,0.53
            c-1.1,0.61-2.21,1.22-3.32,1.86c-0.22,0.13-0.45,0.25-0.67,0.38c-1.29,0.74-2.58,1.5-3.88,2.27c-0.31,0.19-0.63,0.38-0.94,0.57
            c-1.1,0.66-2.2,1.34-3.31,2.02c-0.26,0.16-0.52,0.32-0.78,0.48c-1.3,0.82-2.61,1.65-3.91,2.5c-0.3,0.19-0.6,0.39-0.9,0.59
            c-1.1,0.72-2.2,1.46-3.31,2.2c-0.29,0.2-0.58,0.39-0.87,0.59c-1.31,0.89-2.62,1.8-3.93,2.72c-0.28,0.2-0.56,0.4-0.84,0.6
            c-1.11,0.79-2.22,1.58-3.33,2.39c-0.31,0.23-0.62,0.45-0.93,0.68c-1.31,0.97-2.63,1.95-3.95,2.95
            c-0.03,0.02-0.06,0.05-0.1,0.07c11.95-0.1,27.43-0.4,33.44-0.53C183.89,45.92,184.43,45.73,184.96,45.55z"/>
        </g>
        <g>
          <path class="st0" d="M149.93,210.63c-1.8,0-3.58,0.3-5.28,0.88c-0.01,0-0.02,0.01-0.03,0.01c-0.2,0.07-0.41,0.14-0.61,0.21
            c-1.2,0.4-2.39,0.77-3.58,1.13c-0.3,0.09-0.6,0.17-0.91,0.26c-0.98,0.28-1.96,0.55-2.94,0.8c-0.25,0.06-0.51,0.13-0.76,0.2
            c-1.17,0.29-2.32,0.55-3.47,0.79c-0.26,0.05-0.52,0.1-0.79,0.15c-0.95,0.19-1.89,0.36-2.83,0.51
            c-0.28,0.04-0.55,0.09-0.82,0.13c-1.13,0.17-2.24,0.32-3.35,0.44c-0.2,0.02-0.41,0.04-0.61,0.06
            c-0.94,0.09-1.87,0.17-2.79,0.22c-0.28,0.02-0.56,0.03-0.84,0.05c-1.04,0.05-2.07,0.08-3.09,0.08c-0.04,0-0.08,0-0.12,0
            c-0.1,0-0.2,0-0.3-0.01c-0.98-0.01-1.95-0.04-2.91-0.1c-0.21-0.01-0.42-0.02-0.62-0.03c-1.01-0.07-2-0.16-2.98-0.28
            c-0.19-0.02-0.37-0.05-0.55-0.08c-0.91-0.12-1.8-0.27-2.68-0.43c-0.12-0.02-0.25-0.04-0.37-0.07
            c-0.95-0.19-1.88-0.41-2.79-0.66c-0.2-0.05-0.4-0.11-0.59-0.16c-0.92-0.26-1.83-0.54-2.71-0.86c-0.04-0.01-0.08-0.03-0.12-0.05
            c-0.85-0.31-1.68-0.65-2.5-1.02c-0.17-0.08-0.35-0.15-0.52-0.23c-0.82-0.38-1.63-0.79-2.41-1.22c-0.14-0.08-0.27-0.16-0.4-0.24
            c-0.71-0.41-1.41-0.84-2.09-1.3c-0.12-0.08-0.24-0.15-0.35-0.23c-0.73-0.51-1.44-1.05-2.13-1.61c-0.15-0.12-0.3-0.25-0.45-0.38
            c-0.7-0.59-1.38-1.2-2.03-1.85c-2.46-2.46-4.45-5.27-6.06-8.34c-1.37-2.62-2.44-5.45-3.21-8.46c-0.2-0.79-0.4-1.58-0.56-2.4
            c-0.43-2.16-0.71-4.4-0.86-6.72c-0.15-2.31-0.15-4.7-0.02-7.15c0.13-2.45,0.39-4.96,0.79-7.53c0.03-0.18,0.07-0.37,0.1-0.56
            c0.39-2.39,0.88-4.82,1.49-7.29c0.05-0.21,0.12-0.43,0.17-0.64c0.63-2.46,1.35-4.94,2.2-7.46c1.38-4.11,3.05-8.28,4.99-12.5
            c1.3-2.81,2.71-5.64,4.25-8.48s3.2-5.68,4.97-8.53c1.78-2.84,3.67-5.68,5.67-8.51c2.01-2.83,4.13-5.65,6.36-8.44
            c4.46-5.59,9.37-11.09,14.7-16.42l0.02-0.02c0.49-0.49,0.03-1.32-0.65-1.15c-1.87,0.46-3.88,0.98-5.97,1.56
            c-9.35,2.58-17.71,7.95-23.91,15.41c-10.36,12.46-19.34,25.05-26.78,37.37c-1.52,2.51-2.98,5.01-4.36,7.5
            c-0.05,0.1-0.11,0.2-0.17,0.3c-1.1,1.98-2.16,3.95-3.18,5.91c-1.02,1.96-1.99,3.91-2.93,5.84c-0.93,1.94-1.82,3.86-2.67,5.77
            c-0.85,1.91-1.65,3.8-2.41,5.68c-0.76,1.88-1.48,3.74-2.15,5.58c-0.16,0.43-0.3,0.86-0.45,1.28c-0.84,2.37-1.61,4.71-2.3,7.02
            c-1.59,5.31-2.77,10.44-3.53,15.34c-0.26,1.65-0.46,3.27-0.62,4.86c-0.16,1.59-0.27,3.16-0.33,4.7
            c-0.03,0.77-0.05,1.53-0.06,2.28c-0.01,0.75,0,1.5,0.02,2.24c0.04,1.48,0.12,2.92,0.26,4.34c0.2,2.12,0.52,4.17,0.96,6.14
            c0.87,3.94,2.2,7.56,4.01,10.82c0.9,1.63,1.93,3.17,3.08,4.61c0.76,0.96,1.58,1.88,2.46,2.75c0.01,0.01,0.02,0.02,0.03,0.03
            c0.44,0.44,0.89,0.86,1.35,1.27c0.16,0.14,0.33,0.28,0.5,0.42c0.31,0.27,0.63,0.54,0.95,0.79c0.2,0.16,0.4,0.3,0.61,0.45
            c0.3,0.23,0.6,0.46,0.91,0.67c0.22,0.15,0.45,0.3,0.67,0.45c0.3,0.2,0.6,0.4,0.91,0.59c0.24,0.15,0.48,0.29,0.72,0.43
            c0.3,0.18,0.61,0.36,0.92,0.53c0.25,0.14,0.51,0.27,0.77,0.4c0.31,0.16,0.62,0.32,0.94,0.47c0.26,0.13,0.53,0.25,0.8,0.37
            c0.32,0.14,0.64,0.29,0.97,0.42c0.28,0.12,0.56,0.22,0.84,0.33c0.33,0.13,0.66,0.26,0.99,0.38c0.29,0.1,0.58,0.2,0.87,0.3
            c0.34,0.11,0.68,0.22,1.02,0.33c0.3,0.09,0.6,0.18,0.9,0.26c0.35,0.1,0.7,0.19,1.05,0.28c0.31,0.08,0.62,0.15,0.93,0.23
            c0.36,0.08,0.72,0.16,1.08,0.24c0.32,0.07,0.63,0.13,0.95,0.19c0.37,0.07,0.74,0.13,1.11,0.19c0.32,0.05,0.65,0.1,0.98,0.15
            c0.38,0.05,0.75,0.1,1.14,0.15c0.33,0.04,0.67,0.08,1,0.12c0.39,0.04,0.77,0.07,1.16,0.11c0.34,0.03,0.68,0.06,1.02,0.08
            c0.4,0.03,0.8,0.05,1.2,0.06c0.35,0.02,0.69,0.03,1.04,0.04c0.41,0.01,0.82,0.02,1.23,0.02c0.33,0,0.66,0.01,0.99,0.01
            c0.97,0,1.96-0.03,2.95-0.07c0.21-0.01,0.42-0.02,0.64-0.04c0.85-0.04,1.7-0.1,2.56-0.18c0.25-0.02,0.49-0.04,0.74-0.06
            c1.03-0.1,2.07-0.21,3.12-0.35c0.19-0.03,0.39-0.06,0.59-0.08c0.9-0.12,1.82-0.26,2.74-0.42c0.27-0.04,0.54-0.09,0.81-0.14
            c1.08-0.19,2.17-0.4,3.27-0.63c0.17-0.04,0.35-0.08,0.52-0.11c0.97-0.21,1.94-0.43,2.92-0.66c0.29-0.07,0.58-0.14,0.87-0.21
            c1.13-0.28,2.27-0.58,3.42-0.9c0.13-0.04,0.26-0.08,0.39-0.11c1.04-0.29,2.1-0.61,3.15-0.93c0.3-0.09,0.6-0.19,0.91-0.28
            c1.18-0.37,2.36-0.76,3.55-1.17c0.07-0.02,0.14-0.05,0.21-0.07c1.14-0.39,2.28-0.81,3.43-1.23c0.32-0.12,0.63-0.24,0.95-0.36
            c1.19-0.45,2.37-0.91,3.57-1.39c0.03-0.01,0.07-0.03,0.1-0.04c1.23-0.5,2.47-1.02,3.71-1.56c0.32-0.14,0.64-0.28,0.96-0.42
            c1.14-0.5,2.28-1.01,3.44-1.54c0.12-0.06,0.24-0.11,0.36-0.16c1.25-0.58,2.51-1.18,3.78-1.8c0.32-0.16,0.65-0.32,0.97-0.48
            c1.12-0.55,2.24-1.12,3.36-1.7c0.18-0.09,0.36-0.18,0.54-0.27c1.27-0.66,2.55-1.34,3.83-2.03c0.32-0.18,0.65-0.35,0.97-0.53
            c1.1-0.6,2.21-1.22,3.31-1.85c0.23-0.13,0.45-0.26,0.68-0.39c1.29-0.74,2.58-1.5,3.87-2.27c0.32-0.19,0.63-0.38,0.95-0.57
            c1.1-0.66,2.19-1.33,3.3-2.02c0.26-0.16,0.53-0.33,0.79-0.49c1.3-0.82,2.6-1.65,3.91-2.5c0.3-0.2,0.6-0.4,0.9-0.59
            c1.1-0.72,2.2-1.45,3.3-2.2c0.29-0.2,0.58-0.39,0.87-0.59c1.31-0.89,2.62-1.8,3.93-2.72c0.28-0.2,0.57-0.4,0.85-0.61
            c1.1-0.78,2.21-1.58,3.31-2.38c0.31-0.23,0.62-0.45,0.94-0.68c0.43-0.32,1.01-0.75,1.6-1.19c0.77-0.57,0.35-1.79-0.6-1.78
            C167.55,210.6,155.35,210.63,149.93,210.63z"/>
        </g>
      </g>
    </g>
  <g>
      <path class="st1" d="M381.89,183.11l10.33-15.69c1.7-2.58,5.2-3.31,7.76-1.57c16.03,10.91,33.03,16.48,48.01,16.48
        c15.8,0,24.92-6.69,24.92-17.32v-0.61c0-12.46-17.02-16.71-35.86-22.49c-23.71-6.69-50.15-16.41-50.15-47.11V94.2
        c0-30.39,25.22-48.93,57.14-48.93c18.26,0,38.04,5.79,54.28,15.32c2.63,1.55,3.58,4.89,2.09,7.56l-9.23,16.54
        c-1.49,2.67-4.86,3.67-7.53,2.19c-14.05-7.77-28.51-12.43-40.52-12.43c-14.28,0-22.49,6.69-22.49,16.11v0.61
        c0,11.55,17.32,16.41,36.17,22.49c23.4,7.29,49.84,17.93,49.84,46.8v0.61c0,33.73-26.14,50.45-59.57,50.45
        c-21.21,0-44.51-7.1-63.81-20.82C380.83,188.97,380.25,185.6,381.89,183.11z"/>
    <path class="st1" d="M535.2,129.15v-0.61c0-45.89,36.47-83.88,85.7-83.88s85.4,37.38,85.4,83.27v0.61
        c0,45.59-36.47,83.58-86.01,83.58C571.37,212.12,535.2,174.74,535.2,129.15z M669.53,129.15v-0.61
        c0-28.26-20.36-51.66-49.23-51.66c-29.48,0-48.32,23.1-48.32,51.06v0.61c0,27.96,20.36,51.66,48.93,51.66
        C650.69,180.21,669.53,156.81,669.53,129.15z"/>
    <path class="st1" d="M749.26,48.01h25.61c3.08,0,5.58,2.5,5.58,5.58v19.34c10.33-15.19,25.22-28.26,50.14-28.26
        c36.17,0,57.14,24.31,57.14,61.69v96.53c0,3.08-2.5,5.58-5.58,5.58h-25.61c-3.08,0-5.58-2.5-5.58-5.58V117.3
        c0-24.92-12.46-39.2-34.34-39.2c-21.27,0-36.16,14.89-36.16,39.81v84.98c0,3.08-2.5,5.58-5.58,5.58h-25.61
        c-3.08,0-5.58-2.5-5.58-5.58V53.59C743.68,50.51,746.18,48.01,749.26,48.01z"/>
    <path class="st1" d="M923.29,128.85v-4.66c0-43.87,35.53-79.96,79.4-79.52c50.4,0.51,75.9,40.41,75.9,86.31
        c0,1.71-0.08,3.41-0.2,5.16c-0.2,2.92-2.64,5.18-5.57,5.18H960.06c3.95,26.14,22.49,40.72,46.19,40.72
        c16.25,0,28.26-5.49,39.87-15.8c2.1-1.87,5.28-1.85,7.38,0.02l13.61,12.08c2.36,2.1,2.51,5.73,0.34,8.03
        c-14.84,15.76-34.74,25.76-61.81,25.76C959.15,212.12,923.29,178.38,923.29,128.85z M1042.12,116.99
        c-2.43-23.7-16.41-42.24-40.72-42.24c-22.49,0-38.29,17.32-41.64,42.24H1042.12z"/>
    <path class="st1" d="M1121.23,48.01h25.61c3.08,0,5.58,2.5,5.58,5.58v21.16c11.85-16.71,28.57-30.09,54.4-30.09
        c37.99,0,74.76,30.09,74.76,83.27v0.61c0,53.18-36.47,83.27-74.76,83.27c-26.44,0-43.15-13.37-54.4-28.26v67.97
        c0,3.08-2.5,5.58-5.58,5.58h-25.61c-3.08,0-5.58-2.5-5.58-5.58V53.59C1115.65,50.51,1118.15,48.01,1121.23,48.01z
         M1244.21,128.54v-0.61c0-31-20.97-51.36-45.89-51.36c-24.92,0-46.8,20.67-46.8,51.36v0.61c0,31,21.88,51.36,46.8,51.36
        C1223.54,179.9,1244.21,160.15,1244.21,128.54z"/>
    <path class="st1" d="M1417.43,202.89v-14.17c-10.94,13.07-27.66,23.1-51.97,23.1c-30.39,0-57.13-17.32-57.13-49.54v-0.61
        c0-35.56,27.66-52.58,65.04-52.58c19.45,0,31.91,2.73,44.37,6.69v-3.04c0-22.19-13.98-34.34-39.51-34.34
        c-15.71,0-27.92,3.03-40.52,7.87c-2.95,1.13-6.25-0.43-7.26-3.42l-6.48-19.04c-0.94-2.76,0.4-5.8,3.09-6.93
        c16.06-6.77,32.55-11.3,56.34-11.3c47.41,0,70.51,24.92,70.51,67.77v89.54c0,3.08-2.5,5.58-5.58,5.58h-25.31
        C1419.93,208.47,1417.43,205.97,1417.43,202.89z M1418.34,141.31c-9.42-3.65-22.49-6.38-36.77-6.38
        c-23.1,0-36.77,9.42-36.77,24.92v0.61c0,15.19,13.68,23.7,31,23.7c24.31,0,42.55-13.68,42.55-33.73V141.31z"/>
    <path class="st1" d="M1503.24,48.01h25.61c3.08,0,5.58,2.5,5.58,5.58v30.59c9.33-22.33,26.02-38.09,51.05-39.2
        c3.16-0.14,5.78,2.42,5.78,5.58v27.92c0,2.94-2.29,5.37-5.22,5.56c-31.64,2.04-51.61,22.98-51.61,63.35v55.51
        c0,3.08-2.5,5.58-5.58,5.58h-25.61c-3.08,0-5.58-2.5-5.58-5.58V53.59C1497.66,50.51,1500.16,48.01,1503.24,48.01z"/>
    </g>
</svg>
