<?xml version="1.0" encoding="UTF-8" standalone="no"?>
<!-- Created with Inkscape (http://www.inkscape.org/) -->

<svg
   width="99.957954mm"
   height="26.990692mm"
   viewBox="0 0 99.957954 26.990692"
   version="1.1"
   id="svg1009"
   inkscape:version="1.2.2 (b0a8486541, 2022-12-01)"
   sodipodi:docname="Swisscom logo.svg"
   xmlns:inkscape="http://www.inkscape.org/namespaces/inkscape"
   xmlns:sodipodi="http://sodipodi.sourceforge.net/DTD/sodipodi-0.dtd"
   xmlns="http://www.w3.org/2000/svg"
   xmlns:svg="http://www.w3.org/2000/svg">
  <sodipodi:namedview
     id="namedview1011"
     pagecolor="#ffffff"
     bordercolor="#000000"
     borderopacity="0.25"
     inkscape:showpageshadow="2"
     inkscape:pageopacity="0.0"
     inkscape:pagecheckerboard="0"
     inkscape:deskcolor="#d1d1d1"
     inkscape:document-units="mm"
     showgrid="false"
     inkscape:zoom="1.2580723"
     inkscape:cx="147.05038"
     inkscape:cy="170.10152"
     inkscape:window-width="1866"
     inkscape:window-height="1011"
     inkscape:window-x="0"
     inkscape:window-y="0"
     inkscape:window-maximized="1"
     inkscape:current-layer="layer1" />
  <defs
     id="defs1006">
    <linearGradient
       id="linear-gradient"
       x1="69.550003"
       y1="48.209999"
       x2="60.119999"
       y2="84.190002"
       gradientTransform="matrix(0.26458333,0,0,-0.26458333,16.61129,122.26974)"
       gradientUnits="userSpaceOnUse">
      <stop
         offset="0"
         stop-color="#350706"
         id="stop593" />
      <stop
         offset="0.36"
         stop-color="#3f0808"
         id="stop595" />
      <stop
         offset="0.98"
         stop-color="#5b0c0e"
         id="stop597" />
      <stop
         offset="1"
         stop-color="#5c0c0e"
         id="stop599" />
    </linearGradient>
    <radialGradient
       id="radial-gradient"
       cx="70.690002"
       cy="120.71"
       r="20.17"
       gradientTransform="matrix(0.26458333,0,0,-0.26458333,16.61129,122.26974)"
       gradientUnits="userSpaceOnUse">
      <stop
         offset="0"
         stop-color="#003789"
         id="stop602" />
      <stop
         offset="1"
         stop-color="#5fc7ff"
         stop-opacity="0.98"
         id="stop604" />
    </radialGradient>
    <radialGradient
       id="radial-gradient-2"
       cx="84.220001"
       cy="123.44"
       r="24.08"
       gradientTransform="matrix(0.26458333,0,0,-0.26458333,16.61129,122.26974)"
       gradientUnits="userSpaceOnUse">
      <stop
         offset="0"
         stop-color="#ec0a1c"
         id="stop607" />
      <stop
         offset="1"
         stop-color="#bb0e15"
         id="stop609" />
    </radialGradient>
    <radialGradient
       id="radial-gradient-3"
       cx="106.44"
       cy="89.139999"
       r="41.360001"
       gradientTransform="matrix(0.26458333,0,0,-0.26458333,16.61129,122.26974)"
       gradientUnits="userSpaceOnUse">
      <stop
         offset="0"
         stop-color="#5bc0ff"
         stop-opacity="0.98"
         id="stop612" />
      <stop
         offset="1"
         stop-color="#003789"
         id="stop614" />
    </radialGradient>
    <radialGradient
       id="radial-gradient-4"
       cx="53.82"
       cy="72.57"
       r="27.02"
       gradientTransform="matrix(0.26458333,0,0,-0.26458333,16.61129,122.26974)"
       gradientUnits="userSpaceOnUse">
      <stop
         offset="0"
         stop-color="#42b4f3"
         stop-opacity="0.98"
         id="stop617" />
      <stop
         offset="1"
         stop-color="#003a80"
         id="stop619" />
    </radialGradient>
    <radialGradient
       id="radial-gradient-5"
       cx="88.489998"
       cy="104.89"
       r="47.740002"
       gradientTransform="matrix(0.26458333,0,0,-0.26458333,16.61129,122.26974)"
       gradientUnits="userSpaceOnUse">
      <stop
         offset="0"
         stop-color="#5fc7ff"
         id="stop622" />
      <stop
         offset="1"
         stop-color="#003785"
         stop-opacity="0.98"
         id="stop624" />
    </radialGradient>
    <radialGradient
       id="radial-gradient-6"
       cx="47.209999"
       cy="114.1"
       r="55.18"
       gradientTransform="matrix(0.26458333,0,0,-0.26458333,16.61129,122.26974)"
       gradientUnits="userSpaceOnUse">
      <stop
         offset="0"
         stop-color="#ec0a1c"
         id="stop627" />
      <stop
         offset="1"
         stop-color="#9e0d18"
         id="stop629" />
    </radialGradient>
  </defs>
  <g
     inkscape:label="Layer 1"
     inkscape:groupmode="layer"
     id="layer1"
     transform="translate(-26.360162,-85.182547)">
    <path
       class="cls-2"
       d="m 91.901123,95.956927 a 6.4240833,6.4240833 0 0 0 -2.016124,-0.410104 c -0.767292,0 -1.367896,0.201083 -1.367896,0.899583 0,1.651 4.249208,0.635 4.249208,4.032254 0,2.29923 -1.865312,3.175 -3.96875,3.175 a 9.823979,9.823979 0 0 1 -2.817812,-0.41804 l 0.166687,-2.01613 a 9.5249999,9.5249999 0 0 0 2.550584,0.46831 c 0.814916,0 1.481666,-0.26458 1.481666,-0.96573 0,-1.767414 -4.246562,-0.635 -4.246562,-4.016372 0,-2.116667 1.780646,-2.981854 3.7465,-2.981854 a 8.1041874,8.1041874 0 0 1 2.666999,0.418041 z m -7.76552,0 a 6.4849374,6.4849374 0 0 0 -2.013479,-0.410104 c -0.767292,0 -1.383771,0.201083 -1.383771,0.899583 0,1.651 4.265083,0.635 4.265083,4.032254 0,2.29923 -1.881187,3.175 -3.96875,3.175 a 10.212917,10.212917 0 0 1 -2.849562,-0.41804 l 0.182562,-2.01613 a 9.6996249,9.6996249 0 0 0 2.566459,0.46831 c 0.79375,0 1.465791,-0.26458 1.465791,-0.96573 0,-1.767414 -4.265083,-0.635 -4.265083,-4.016372 0,-2.116667 1.799167,-2.981854 3.7465,-2.981854 a 8.4375624,8.4375624 0 0 1 2.701396,0.418041 z m 39.250937,-2.248958 c 1.85208,0 2.93158,1.000125 2.93158,3.175 v 6.564311 h -2.46591 v -6.048374 c 0,-0.981604 -0.28311,-1.632479 -1.32292,-1.632479 -1.03981,0 -1.96585,0.915458 -1.96585,2.563812 v 5.132921 h -2.413 v -6.064254 c 0,-0.915458 -0.30163,-1.632479 -1.35202,-1.632479 -1.09803,0 -1.94734,1.016 -1.94734,2.664354 v 5.027089 h -2.49766 v -9.548818 c 1.62983,-0.201083 2.24631,0.465667 2.3151,1.531937 a 3.2940625,3.2940625 0 0 1 2.98185,-1.73302 c 1.7145,0 2.39713,0.949854 2.64584,1.852083 0.41539,-0.947208 1.48166,-1.852083 3.09827,-1.852083 z m -50.228499,0.201083 c -0.529167,2.831042 -1.899709,7.297208 -2.764897,9.546168 h -2.598208 l -1.833562,-6.350001 h -0.03175 l -1.833563,6.350001 h -2.582333 c -0.833438,-2.21721 -2.333625,-6.831543 -2.764896,-9.546168 h 2.447396 l 1.616604,6.564308 h 0.0344 l 1.931458,-6.564308 h 2.450042 l 1.881187,6.514038 h 0.0344 l 1.632479,-6.514038 z M 57.28304,95.956927 a 6.4240833,6.4240833 0 0 0 -2.016124,-0.410104 c -0.767292,0 -1.349375,0.201083 -1.349375,0.899583 0,1.651 4.233333,0.635 4.233333,4.032254 0,2.29923 -1.865313,3.175 -3.96875,3.175 a 9.7895832,9.7895832 0 0 1 -2.815167,-0.41804 l 0.148167,-2.01613 a 9.6996249,9.6996249 0 0 0 2.566458,0.46831 c 0.814917,0 1.481667,-0.26458 1.481667,-0.96573 0,-1.767414 -4.233333,-0.635 -4.233333,-4.016372 0,-2.116667 1.780645,-2.981854 3.7465,-2.981854 a 8.1835624,8.1835624 0 0 1 2.666999,0.418041 z m 48.97702,7.696733 c -2.71462,0 -4.61433,-1.48167 -4.61433,-4.812775 0,-2.981854 2.00025,-5.132916 4.89744,-5.132916 2.69875,0 4.44764,1.518708 4.44764,4.7625 0,3.116791 -1.89706,5.180541 -4.73075,5.180541 z m 0.10054,-7.842254 c -1.09802,0 -2.14841,0.814917 -2.14841,2.910417 0,1.815037 0.68262,2.831037 2.11666,2.831037 1.21709,0 2.15107,-0.9816 2.15107,-2.910412 0,-1.852084 -0.66675,-2.831042 -2.11667,-2.831042 z m -32.086018,7.646464 h 2.450042 v -9.548818 c -1.150938,-0.116417 -2.450042,0.201083 -2.450042,2.00025 z m 1.338792,-10.747381 a 1.5345833,1.5345833 0 0 0 1.5875,-1.516062 1.5425208,1.5425208 0 0 0 -3.082396,0 1.5319375,1.5319375 0 0 0 1.494896,1.516062 z m 22.857353,10.911421 c -2.833687,0 -4.683124,-1.41552 -4.683124,-4.7969 0,-2.868083 1.5875,-5.082646 5.064124,-5.082646 a 7.0908332,7.0908332 0 0 1 2.333623,0.399521 l -0.52916,2.00025 a 5.0429583,5.0429583 0 0 0 -1.730379,-0.34925 c -1.783292,0 -2.516188,1.164167 -2.516188,2.910417 0,1.701268 0.66675,2.833688 2.415646,2.833688 a 4.8656874,4.8656874 0 0 0 1.931461,-0.41804 l 0.2831,1.96585 c -0.47625,0.30427 -1.492248,0.53711 -2.558519,0.53711 z"
       id="path638"
       style="fill:#001155;stroke-width:0.264583" />
    <path
       class="cls-3"
       d="m 35.372894,92.120469 v 0 a 1.6880416,1.6880416 0 0 0 -1.373188,1.058333 c -0.243416,0.542396 -0.375708,1.140354 -0.732895,1.627187 -0.740834,1.016 -2.661709,0.777875 -2.955396,2.17223 -0.431271,2.047875 2.233083,2.479145 3.024187,3.905251 0.579438,1.05833 0.296334,2.68552 1.391709,3.42371 a 1.8706041,1.8706041 0 0 0 0.545041,0.24341 0.79374999,0.79374999 0 0 0 0.103188,0.0212 c 0,0 -0.0026,-12.451287 -0.0026,-12.451287 z"
       id="path640"
       style="fill:#ffffff;stroke-width:0.264583" />
    <path
       class="cls-4"
       d="m 35.37554,104.57705 -0.103188,-0.0212 a 1.8838333,1.8838333 0 0 1 -0.547687,-0.24341 c -1.095375,-0.73819 -0.812271,-2.38125 -1.389063,-3.42371 a 3.0083125,3.0083125 0 0 0 -0.79375,-0.86784 l -0.0291,-0.02381 c -0.127,0.127 -0.314854,0.32544 -0.619125,0.62971 a 8.4666666,8.4666666 0 0 0 -0.664104,0.76465 v 0 a 9.4350415,9.4350415 0 0 1 1.74625,2.43417 c 0.529167,1.18798 0.672042,2.48179 1.084792,3.70416 a 4.7466249,4.7466249 0 0 0 0.613833,1.29117 1.6113125,1.6113125 0 0 0 0.703792,0.58473 v -4.84188 z"
       id="path642"
       style="fill:url(#linear-gradient);stroke-width:0.264583" />
    <path
       class="cls-5"
       d="m 34.07379,89.511677 c 0.116416,0.127 0.264583,0.280458 0.396875,0.418042 0.132291,0.137583 0.312208,0.322791 0.505354,0.508 0.119062,0.11377 0.264583,0.264583 0.388937,0.370416 v -5.595937 a 1.4975416,1.4975416 0 0 0 -0.394229,-0.02646 3.4157708,3.4157708 0 0 0 -0.976312,0.201083 2.5135416,2.5135416 0 0 0 -0.769938,0.433917 1.4631458,1.4631458 0 0 0 -0.508,0.8255 2.1166666,2.1166666 0 0 0 0.22225,1.322916 4.9900416,4.9900416 0 0 0 0.468313,0.79375 c 0,0 0.132291,0.161396 0.206375,0.243417 0.150812,0.153458 0.306916,0.328083 0.460375,0.505354 z"
       id="path644"
       style="fill:url(#radial-gradient);stroke-width:0.264583" />
    <path
       class="cls-6"
       d="m 43.003477,93.84026 a 7.2416457,7.2416457 0 0 0 -0.632354,-2.450041 6.3261874,6.3261874 0 0 0 -1.254125,-1.793875 c -0.05027,-0.05027 -0.103188,-0.103188 -0.156104,-0.150813 a 6.6145832,6.6145832 0 0 0 -0.941917,-0.732896 6.8421249,6.8421249 0 0 0 -1.039812,-0.547687 6.1806666,6.1806666 0 0 0 -1.870604,-0.463021 3.349625,3.349625 0 0 0 -1.735667,0.264583 v 2.831042 0 c 0.3175,0.291042 0.6985,0.640292 0.891646,0.812271 0.134937,0.119062 0.264583,0.232833 0.399521,0.34925 l 0.394229,0.330729 0.410104,0.346604 c 0.169333,0.142875 0.777875,0.635 0.849312,0.695854 l 0.119063,0.09525 1.537229,1.246188 0.0344,0.02646 c 0.206375,0.166688 1.267354,1.021292 1.788583,1.468438 0.521229,0.447145 0.912813,0.79375 0.949854,0.833437 a 12.739687,12.739687 0 0 0 0.230188,-1.407583 9.8160415,9.8160415 0 0 0 0.02646,-1.754188 z"
       id="path646"
       style="fill:url(#radial-gradient-2);stroke-width:0.264583" />
    <path
       class="cls-7"
       d="m 46.337228,102.05028 a 6.9003332,6.9003332 0 0 0 -0.867833,-1.96321 13.43025,13.43025 0 0 0 -1.923521,-2.328331 c -0.264583,-0.264583 -0.529168,-0.502708 -0.793751,-0.754062 -0.02646,0.119062 -0.0926,0.402167 -0.224896,0.833437 -0.06879,0.224896 -0.193146,0.595313 -0.240771,0.735542 -0.07144,0.203729 -0.209021,0.568854 -0.301625,0.79375 -0.127,0.330729 -0.328083,0.793754 -0.508,1.180044 -0.259291,0.55562 -0.404812,0.82021 -0.693208,1.34937 -0.129646,0.23548 -0.240771,0.46038 -0.402167,0.74084 -0.05556,0.0953 -0.113771,0.19579 -0.182562,0.30691 -0.0291,0.045 -0.362479,0.58473 -0.396875,0.64559 -0.06615,0.10318 -0.140229,0.22225 -0.185209,0.28839 -0.39952,0.61119 -0.433916,0.64029 -0.497416,0.73025 -0.148167,0.20109 0.05292,-0.0741 -0.227542,0.32015 l -0.664104,0.93662 c -0.0979,0.13494 -0.428625,0.56886 -0.79375,1.0213 -0.365125,0.45243 -0.740833,0.9472 -0.907521,1.14564 l -1.166812,1.37583 v 2.7649 c 0.492125,-0.0397 1.005416,-0.10848 1.531937,-0.20373 a 17.690041,17.690041 0 0 0 1.994958,-0.49477 16.486187,16.486187 0 0 0 1.688042,-0.62971 14.483291,14.483291 0 0 0 1.444625,-0.73025 11.707812,11.707812 0 0 0 1.698626,-1.19327 8.6862707,8.6862707 0 0 0 1.563688,-1.72508 6.9188541,6.9188541 0 0 0 1.000125,-2.20927 6.8156666,6.8156666 0 0 0 0.201083,-1.37848 5.4371874,5.4371874 0 0 0 -0.145521,-1.5584 z"
       id="path648"
       style="fill:url(#radial-gradient-3);stroke-width:0.264583" />
    <path
       class="cls-8"
       d="m 34.671748,108.8342 a 4.7466249,4.7466249 0 0 1 -0.613833,-1.29117 c -0.41275,-1.23296 -0.545042,-2.52677 -1.084792,-3.70416 a 9.4535624,9.4535624 0 0 0 -1.743604,-2.43417 7.2231249,7.2231249 0 0 0 -0.510646,0.75671 4.4079583,4.4079583 0 0 0 -0.34925,0.75406 3.7808958,3.7808958 0 0 0 -0.116417,0.45244 3.175,3.175 0 0 0 -0.05292,0.47625 3.254375,3.254375 0 0 0 0.03704,0.61648 3.7412083,3.7412083 0 0 0 0.169334,0.66145 4.5534791,4.5534791 0 0 0 0.375708,0.79375 l 0.06615,0.10848 a 6.3817499,6.3817499 0 0 0 1.127125,1.35202 8.6942082,8.6942082 0 0 0 0.775229,0.63765 c 0.182563,0.12965 0.367771,0.26458 0.558271,0.37306 0.264583,0.15875 0.515937,0.30692 0.780521,0.4445 0.359833,0.18521 0.926041,0.44186 1.288521,0.58738 v 0 a 1.6113125,1.6113125 0 0 1 -0.706437,-0.58473 z"
       id="path650"
       style="fill:url(#radial-gradient-4);stroke-width:0.264583" />
    <path
       class="cls-9"
       d="m 42.746831,97.002031 c -0.03704,-0.0344 -0.463021,-0.418042 -0.949854,-0.833437 -0.486833,-0.415396 -1.5875,-1.30175 -1.788583,-1.468438 l -0.0344,-0.02646 -1.537229,-1.243542 c -0.05821,-0.04498 -0.0979,-0.07937 -0.119063,-0.0979 -0.07144,-0.05821 -0.679979,-0.550333 -0.849312,-0.693208 L 37.058286,92.295088 36.666702,91.96965 C 36.523827,91.853233 36.402119,91.739463 36.264536,91.617754 36.07139,91.448421 35.69039,91.088588 35.37289,90.808129 v 0 c -0.121708,-0.113771 -0.264583,-0.264583 -0.386292,-0.367771 -0.193146,-0.185208 -0.341312,-0.333375 -0.505354,-0.508 -0.164042,-0.174625 -0.280458,-0.291041 -0.396875,-0.418041 -0.164042,-0.177271 -0.320146,-0.351896 -0.460375,-0.515938 l -0.15875,-0.185208 v 0 c 0.0926,0.150813 0.28575,0.428625 0.383646,0.566208 0.264583,0.391584 0.214312,0.309563 0.478896,0.706438 0.179916,0.264583 0.484187,0.756708 0.650875,1.037166 a 1.0847917,1.0847917 0 0 1 0.05821,0.10848 4.4449999,4.4449999 0 0 1 0.264583,0.595312 1.0900833,1.0900833 0 0 1 0.06615,0.291042 v 0 c 0,0 0,12.448643 0,12.456583 v 0 4.84188 l 1.166813,-1.37584 c 0.166687,-0.19844 0.547687,-0.68262 0.907521,-1.14564 0.359833,-0.46302 0.682625,-0.88636 0.79375,-1.0213 l 0.664104,-0.9472 c 0.280458,-0.39423 0.07937,-0.11907 0.227541,-0.32015 0.0635,-0.09 0.0979,-0.11906 0.497417,-0.73025 l 0.185208,-0.2884 c 0.0344,-0.0609 0.367771,-0.6006 0.396875,-0.64822 0.06879,-0.10848 0.127,-0.20903 0.182563,-0.30428 0.161396,-0.28045 0.264583,-0.50535 0.402166,-0.74083 0.288396,-0.52917 0.428625,-0.79375 0.687917,-1.34408 0.179917,-0.39159 0.381,-0.851961 0.508,-1.180044 0.0926,-0.230188 0.230188,-0.597958 0.298979,-0.79375 0.05027,-0.142875 0.174625,-0.510646 0.243417,-0.735542 0.132292,-0.433916 0.198437,-0.717021 0.224896,-0.836083 v 0 z"
       id="path652"
       style="fill:url(#radial-gradient-5);stroke-width:0.264583" />
    <path
       class="cls-10"
       d="m 31.226873,101.39147 a 8.4666666,8.4666666 0 0 1 0.664104,-0.76465 c 0.304271,-0.30427 0.492125,-0.50006 0.619125,-0.629706 -1.058333,-0.833437 -2.526771,-1.457854 -2.198687,-3.013604 0.293687,-1.394354 2.214562,-1.156229 2.955396,-2.172229 0.357187,-0.486833 0.489479,-1.084792 0.732895,-1.627187 a 1.6880416,1.6880416 0 0 1 1.373188,-1.058334 v 0 a 1.0874375,1.0874375 0 0 0 -0.06615,-0.293687 4.2677291,4.2677291 0 0 0 -0.264583,-0.592667 0.88899999,0.88899999 0 0 0 -0.05821,-0.111125 c -0.166687,-0.277812 -0.470958,-0.764646 -0.650875,-1.037167 -0.264583,-0.396875 -0.206375,-0.314854 -0.478895,-0.703791 -0.0979,-0.140229 -0.291042,-0.418042 -0.383646,-0.568854 v 0 a 0.50006249,0.50006249 0 0 1 -0.04762,-0.05821 4.8868541,4.8868541 0 0 1 -0.468313,-0.79375 l -0.06879,-0.166687 -0.85725,0.635 c -0.677334,0.497417 -1.359959,0.989542 -2.018771,1.510771 -0.433917,0.341312 -0.859896,0.695854 -1.267354,1.058333 a 11.797771,11.797771 0 0 0 -1.129771,1.164167 c -0.653521,0.79375 -1.169459,1.68275 -1.243542,2.69875 a 3.4554583,3.4554583 0 0 0 0,0.497416 3.603625,3.603625 0 0 0 0.06879,0.529167 4.1618958,4.1618958 0 0 0 0.777875,1.693333 9.7049165,9.7049165 0 0 0 1.455208,1.494896 l 0.264583,0.235479 c 0.621771,0.529167 1.254125,1.058336 1.852084,1.640416 0.169333,0.15875 0.330729,0.32544 0.492125,0.49477 l -0.05027,-0.0556 z"
       id="path654"
       style="fill:url(#radial-gradient-6);stroke-width:0.264583" />
  </g>
</svg>
